<?xml version="1.0" encoding="UTF-8"?> <svg xmlns="http://www.w3.org/2000/svg" xmlns:xlink="http://www.w3.org/1999/xlink" version="1.1" id="Layer_1" x="0px" y="0px" width="80px" height="80px" viewBox="0 0 80 80" style="enable-background:new 0 0 80 80;" xml:space="preserve"> <style type="text/css"> .st0{fill-rule:evenodd;clip-rule:evenodd;fill:#016FD0;} .st1{fill-rule:evenodd;clip-rule:evenodd;fill:#FFFFFF;} </style> <title>mc_vrt_rgb_pos</title> <g> <polygon class="st0" points="15,15 65,15 65,42.1 65,49.4 65,65 15,65 15,39.6 15,36 "></polygon> <path class="st1" d="M24.8,49.8v-7.7h8.3l0.8,1.3l0.8-1.3H65v7.3c0,0-0.8,0.6-1.7,0.6H46.7l-1-1.3V50h-3.3v-2.1 c0,0-0.4,0.2-1.5,0.2h-1V50h-5L34,48.7L33.1,50L24.8,49.8L24.8,49.8z"></path> <path class="st1" d="M15,36l1.9-4.4h3.3l1,2.5v-2.5h4l0.6,1.7l0.6-1.7h18.1v0.8c0,0,1-0.8,2.5-0.8h5.8l1,2.5v-2.5h3.3l0.8,1.5v-1.5 h3.3v7.9h-3.3l-0.8-1.5v1.5h-4.8l-0.4-1.2h-1.2l-0.4,1.2h-3.3c-1.2,0-2.3-0.8-2.3-0.8v0.8h-5l-1-1.2v1.2H20l-0.8-1.2h-1.5l-0.4,1.2 H15V36L15,36z"></path> <path class="st0" d="M17.5,32.7L15,38.5h1.7l0.4-1.2h2.7l0.4,1.2h1.7l-2.5-5.8H17.5L17.5,32.7z M18.5,34l0.8,2.1h-1.7L18.5,34 L18.5,34z"></path> <polygon class="st0" points="22.1,38.5 22.1,32.7 24.6,32.7 25.8,36.5 27.1,32.7 29.6,32.7 29.6,38.5 28.1,38.5 28.1,34.2 26.5,38.5 25.2,38.5 23.5,34.2 23.5,38.5 "></polygon> <polygon class="st0" points="30.4,38.5 30.4,32.7 35.2,32.7 35.2,34 32.1,34 32.1,35 35.2,35 35.2,36.2 32.1,36.2 32.1,37.3 35.2,37.3 35.2,38.5 "></polygon> <path class="st0" d="M36.2,32.7v5.8h1.5v-2.1h0.6l1.7,2.1h1.9L40,36.5c0.8,0,1.7-0.8,1.7-1.9c0-1.3-1-1.9-2.1-1.9L36.2,32.7 L36.2,32.7z M37.7,34h1.7c0.4,0,0.6,0.4,0.6,0.6c0,0.4-0.4,0.6-0.6,0.6h-1.7V34L37.7,34L37.7,34z"></path> <polygon class="st0" points="43.5,38.5 42.1,38.5 42.1,32.7 43.5,32.7 "></polygon> <path class="st0" d="M47.1,38.5h-0.4c-1.7,0-2.5-1.2-2.5-2.9c0-1.7,1-2.9,2.9-2.9h1.7v1.5h-1.7c-0.8,0-1.5,0.6-1.5,1.7 s0.6,1.7,1.7,1.7h0.4L47.1,38.5L47.1,38.5z"></path> <path class="st0" d="M50.4,32.7l-2.5,5.8h1.7l0.4-1.2h2.7l0.4,1.2h1.7l-2.5-5.8H50.4L50.4,32.7z M51.2,34l0.8,2.1h-1.7L51.2,34 L51.2,34z"></path> <polygon class="st0" points="55,38.5 55,32.7 56.9,32.7 59.2,36.5 59.2,32.7 60.6,32.7 60.6,38.5 59,38.5 56.5,34.8 56.5,38.5 "></polygon> <polygon class="st0" points="25.6,48.8 25.6,42.9 30.4,42.9 30.4,44.4 27.3,44.4 27.3,45.2 30.4,45.2 30.4,46.5 27.3,46.5 27.3,47.5 30.4,47.5 30.4,48.8 "></polygon> <polygon class="st0" points="49.2,48.8 49.2,42.9 54,42.9 54,44.4 50.6,44.4 50.6,45.2 54,45.2 54,46.5 50.6,46.5 50.6,47.5 54,47.5 54,48.8 "></polygon> <polygon class="st0" points="30.6,48.8 33.1,45.8 30.6,42.9 32.5,42.9 34,44.8 35.4,42.9 37.1,42.9 34.8,45.8 37.1,48.8 35.2,48.8 34,47.1 32.5,48.8 "></polygon> <path class="st0" d="M37.3,42.9v5.8h1.5v-1.9h1.5c1.2,0,2.3-0.6,2.3-2.1c0-1-0.8-1.9-2.1-1.9H37.3L37.3,42.9z M38.8,44.4h1.7 c0.4,0,0.6,0.2,0.6,0.6c0,0.4-0.2,0.6-0.8,0.6h-1.7v-1.2H38.8L38.8,44.4z"></path> <path class="st0" d="M43.3,42.9v5.8h1.5v-2.1h0.6l1.7,2.1H49l-1.9-2.1c0.8,0,1.7-0.8,1.7-1.9c0-1.2-1-1.9-2.1-1.9H43.3L43.3,42.9 L43.3,42.9z M44.8,44.4h1.7c0.4,0,0.6,0.4,0.6,0.6c0,0.4-0.4,0.6-0.6,0.6h-1.7V44.4L44.8,44.4z"></path> <path class="st0" d="M54.6,48.8v-1.2h2.9c0.4,0,0.6-0.2,0.6-0.4c0-0.2-0.2-0.4-0.6-0.4h-1.2c-1.3,0-1.9-0.6-1.9-1.7 c0-1,0.6-1.9,2.3-1.9h2.9L59,44.4h-2.3c-0.4,0-0.6,0.2-0.6,0.4c0,0.2,0.2,0.4,0.6,0.4h1.5c1.3,0,1.9,0.8,1.9,1.7 c0,1-0.6,1.9-1.9,1.9H54.6L54.6,48.8z"></path> <path class="st0" d="M60,48.8v-1.2h2.9c0.4,0,0.6-0.2,0.6-0.4c0-0.2-0.2-0.4-0.6-0.4h-1.3c-1.2,0-1.9-0.6-1.9-1.7 c0-1,0.6-1.9,2.3-1.9H65l-0.6,1.2h-2.5c-0.4,0-0.6,0.2-0.6,0.4c0,0.2,0.2,0.4,0.6,0.4h1.2c1.2,0,1.9,0.8,1.9,1.7 c0,1-0.6,1.9-1.9,1.9H60L60,48.8z"></path> </g> </svg> 