<?xml version="1.0" encoding="UTF-8"?> <svg xmlns="http://www.w3.org/2000/svg" xmlns:xlink="http://www.w3.org/1999/xlink" version="1.1" id="Layer_1" x="0px" y="0px" width="80px" height="80px" viewBox="0 0 80 80" style="enable-background:new 0 0 80 80;" xml:space="preserve"> <style type="text/css"> .st0{fill:#00C0AF;} </style> <g transform="translate(-208.994649,1774.441219) rotate(-360.00) scale(0.095238,-0.095238)"> <path class="st0" d="M2411.4,18369.9c-7-0.6-13.8-3.9-18.8-8.8c-10.4-10.5-12-26.5-3.9-39c1.6-2.4,5.6-6.5,7.9-8.1 c12.7-8.5,29.1-7,39.5,3.7c3.9,4,6.1,7.9,7.7,13.3c1.2,3.9,1.4,10.2,0.5,14.4c-2.3,11.3-10.6,20.2-21.6,23.4 c-1.5,0.4-3.6,0.9-4.7,1c-1.1,0.1-2.5,0.2-3.1,0.3C2414.4,18370.1,2412.8,18370,2411.4,18369.9z"></path> <path class="st0" d="M2361.8,18296.7c-6.9-0.7-13.1-2.2-19.2-4.8c-17.5-7.4-31.1-23.6-38.4-46.1c-1.8-5.5-4.1-14.5-4.5-17.9 l-0.2-1.2l10.2-8.5c5.6-4.6,10.3-8.4,10.3-8.4c0.1,0,0.4,0.8,0.6,1.7c1.9,7.8,6.5,18.4,10.5,24.5c5.3,7.9,10.1,11.6,17.2,13.5 c9.3,2.3,18,1.5,22.8-2.2c0.9-0.6,1-0.9,0.9-1.6c-0.1-0.5-8.8-32.6-19.3-71.4c-19-69.9-19.1-70.6-19.2-74 c-0.3-8.3,1.9-17.7,5.7-24.3c6.4-10.9,17.2-18,32.5-21.1c1.5-0.3,3.3-0.7,3.9-0.9c1.9-0.5,11.7-0.7,16.1-0.3 c36.6,3.3,65.7,24.4,81.6,59.3c1.1,2.4,1.9,4.4,1.9,4.5c-0.1,0.1-8.4-2.5-18.5-5.7l-18.4-5.8l-1.7-1.6 c-7.9-7.5-15.2-11.8-22.2-12.9c-3.5-0.5-9.6-0.2-13.2,0.7c-9.7,2.6-16.6,8.6-17.9,16c-0.2,0.9,3.1,13.7,17.3,68.2 c9.6,36.9,17.7,67.8,17.9,68.8c1,5,1,13.3-0.1,18.4c-3.9,18.4-17.7,29.3-41.4,32.7C2371.6,18296.8,2365.7,18297.1,2361.8,18296.7z"></path> <path class="st0" d="M2474,18278.8c-23-2.7-35.5-15.5-37.5-38.3c-0.3-3.7-0.5-121.4-0.2-121.4c0.1,0,32.8,10.1,37.3,11.5l1,0.3 v15.7v15.7l38.8,0.1c38.4,0.1,38.8,0.1,42.4,0.8c19.8,3.6,30.2,13.6,33.8,32.2c0.6,3.2,0.7,4.5,0.8,23.5c0.1,13.7,0,21.1-0.2,23.1 c-1.2,10.6-4.5,18.7-10.2,24.7c-5.6,5.9-12.8,9.5-23.4,11.5c-3.5,0.7-3.7,0.7-41.9,0.7C2493.5,18279.1,2475.2,18279,2474,18278.8z M2547.2,18240.7c1.9-0.4,3.5-1.6,4.3-3.1c0.7-1.3,0.7-1.4,0.8-15.6c0.1-16.2,0.1-16.8-2-18.8c-2.2-2.2-0.1-2.1-40-2.1h-35.6v17.4 c0,15,0.1,17.5,0.5,18.5c0.8,2,2.2,3.1,4.6,3.7C2481.3,18241.1,2545.5,18241.1,2547.2,18240.7z"></path> <path class="st0" d="M2593.2,18276.5c3-3.5,5.3-7.1,7.5-11.6c2.9-6.1,4.8-12.6,5.6-19.9l0.5-4.2l52,0c51.7,0,52,0,53.4-0.6 c1.8-0.8,3.5-2.5,4.4-4.3c1.5-2.9,1.6-4.3,1.6-20.2v-14.7l-45.6-0.1c-42.7-0.1-45.8-0.1-48.4-0.7c-3.3-0.6-7.4-2-9.4-3.1 c-8.1-4.6-12.3-13.4-13.3-28.1c-0.4-5.5-0.4-34.9,0-40.8c0.7-11.2,3.5-21.1,7.7-27.6c6.7-10.3,18-15.9,34.6-17 c3.2-0.2,16.1-0.3,38.9-0.2c36.8,0.1,36.4,0.1,43.4,1.8c18.1,4.2,28.3,15.9,30.6,34.8c1,8.2,1.2,15,1.3,57.6 c0.1,44.7,0,53.2-1.1,60.5c-2,13.7-6.1,23.2-13,30.1c-5.3,5.3-11.5,8.5-20.2,10.3l-3.2,0.7l-64.8,0.1l-64.8,0.1L2593.2,18276.5z M2718.3,18144.5c0-12.3-0.1-17.7-0.3-18.4c-0.6-1.8-1.5-2.7-3.3-3.6l-1.7-0.8h-33.6h-33.6l-1.8,0.9c-1.5,0.7-1.9,1.2-2.5,2.4 l-0.8,1.5v15v15l0.7,1.4c0.9,1.8,2.3,2.9,4.2,3.4c1.1,0.3,9.4,0.4,37,0.4l35.6,0V18144.5z"></path> <path class="st0" d="M2758.4,18276.8c7-8.3,11.8-18.6,14.2-31.1c1.7-8.6,1.8-10.6,2-35.5c0.2-22.9,0.2-23.2,0.9-25.5 c3-10.4,9-17.1,17.9-20c6.6-2.2,2.5-2,51.9-2.1l44.6-0.1v-14.4c0-9.1-0.1-15.1-0.3-16.2c-0.7-3.9-3.2-7-6.6-8.4l-1.7-0.7l-53.6-0.1 l-53.6-0.1l-0.2-1c-0.1-0.5-0.3-1.9-0.5-3.1c-2-13.5-6.8-24.3-14.7-33.7l-1.4-1.6l60.2,0.1c60.3,0.1,64.9,0.2,76,1.3 c6.2,0.6,11.7,2.3,16.8,5.2c11.2,6.4,17.5,17.4,18.9,33.1c0.2,2.3,0.3,28.8,0.3,79.9v76.4h-19.8h-19.8v-39v-39h-36.5 c-34.2,0-36.6,0-37.6,0.5c-0.6,0.3-1.3,0.9-1.7,1.4c-0.6,0.8-0.6,1.3-0.8,19.1c-0.2,18.9-0.4,22.8-1.8,30.7 c-1.8,10.7-5,19.6-8.9,24.8l-1.2,1.6h-22.5h-22.5L2758.4,18276.8z"></path> </g> </svg> 