<?xml version="1.0" encoding="UTF-8"?> <svg xmlns="http://www.w3.org/2000/svg" xmlns:xlink="http://www.w3.org/1999/xlink" version="1.1" id="Layer_1" x="0px" y="0px" width="80px" height="80px" viewBox="0 0 80 80" style="enable-background:new 0 0 80 80;" xml:space="preserve"> <style type="text/css"> .st0{fill:#FFFFFF;} .st1{fill:#231F20;} .st2{fill:#50B748;} .st3{fill:#4FB74C;} .st4{fill:#007AC0;} </style> <g> <g> <g> <g> <g> <g> <g> <g> <path class="st0" d="M64.1,25.3l-8.2-1.5c0,0-2.9-0.7-4.4,1.2c-1,0.7-15.4,22.4-15.4,22.4s-3,3.8,0.2,5.5 c3.7,1.9,9.2,4.9,9.2,4.9s4.6,2.4,7.6-1.4c3-3.8,16.3-24.5,16.3-24.5s3.3-4.1-0.6-4.8c0,0,0.9-1.5,1.5-2.7 c0.4-0.7,0.9-1.3-1.1-1.8c-2.9-0.8-2.4-0.7-3.6,0.8L64.1,25.3z"></path> <path class="st1" d="M48.7,59.1c-1.9,0-3.4-0.8-3.5-0.8c-0.1,0-5.6-3.1-9.2-4.9c-0.9-0.5-1.5-1.2-1.7-2.1 c-0.4-1.9,1.1-4,1.3-4.2c2.4-3.6,13.9-21,15.4-22.4c1-1.3,2.5-1.5,3.6-1.5c0.7,0,1.2,0.1,1.3,0.1l7.9,1.4l1.2-1.6 c0.2-0.2,0.3-0.3,0.4-0.5c0.4-0.6,0.8-1,1.5-1c0.5,0,1,0.2,2.1,0.4l0.2,0.1c1,0.3,1.6,0.6,1.8,1.1c0.2,0.5,0,1-0.2,1.3 c0,0.1-0.1,0.1-0.1,0.2c-0.4,0.7-0.8,1.6-1.2,2.1c0.7,0.3,1.2,0.7,1.4,1.3c0.6,1.6-1,3.8-1.2,4.1 C69.1,33.3,56.4,53,53.5,56.7C52.3,58.3,50.7,59.1,48.7,59.1z M54.7,24.2c-0.9,0-2,0.2-2.7,1.1l0,0.1l-0.1,0 c-0.8,0.7-9.6,13.7-15.3,22.3l0,0c0,0-1.5,1.9-1.1,3.3c0.1,0.6,0.5,1,1.1,1.3c3.6,1.8,9.1,4.9,9.2,4.9c0,0,1.4,0.7,3,0.7 c1.6,0,2.9-0.7,3.9-1.9c2.9-3.8,16.1-24.3,16.3-24.5l0,0c0.4-0.5,1.4-2.2,1.1-3.1c-0.2-0.4-0.6-0.7-1.4-0.8l-0.8-0.1 l0.4-0.7c0,0,0.9-1.5,1.5-2.6c0-0.1,0.1-0.1,0.1-0.2c0.1-0.1,0.2-0.3,0.2-0.4l0,0c0,0-0.1-0.2-1.1-0.4L68.8,23 c-1-0.3-1.5-0.4-1.8-0.4c-0.2,0-0.2,0-0.7,0.6c-0.1,0.1-0.2,0.3-0.4,0.5l-1.6,2.1l-8.6-1.5C55.8,24.3,55.3,24.2,54.7,24.2z"></path> </g> <g> <path class="st2" d="M48.6,58.4c-1.9,0-3.4-0.8-3.5-0.8c-0.1,0-5.6-3.1-9.2-4.9c-0.9-0.5-1.5-1.2-1.7-2.1 c-0.4-1.9,1.1-4,1.3-4.2c2.4-3.6,14-21,15.4-22.4c1-1.3,2.5-1.5,3.6-1.5c0.7,0,1.2,0.1,1.3,0.1l7.9,1.4l1.2-1.6 c0.2-0.2,0.3-0.4,0.4-0.5c0.4-0.6,0.8-1,1.5-1c0.4,0,1,0.2,2.1,0.4l0.2,0c1,0.3,1.6,0.6,1.8,1.1c0.2,0.5,0,1-0.2,1.3 c0,0.1-0.1,0.1-0.1,0.2c-0.4,0.7-0.8,1.6-1.2,2.1c0.7,0.3,1.2,0.7,1.5,1.3c0.6,1.6-1,3.8-1.2,4.1 c-0.7,1.1-13.4,20.8-16.3,24.6C52.2,57.6,50.5,58.4,48.6,58.4z M54.5,23.6c-0.9,0-2,0.2-2.7,1.1l0,0.1l-0.1,0 c-0.8,0.7-9.6,13.7-15.3,22.3l0,0c0,0-1.5,1.9-1.1,3.3c0.1,0.6,0.5,1,1.1,1.3c3.6,1.8,9.1,4.9,9.2,4.9c0,0,1.4,0.7,3,0.7 c1.6,0,2.9-0.6,3.9-1.9c2.9-3.8,16.1-24.3,16.3-24.5l0,0c0.4-0.5,1.5-2.2,1.1-3.1c-0.2-0.4-0.6-0.7-1.4-0.8l-0.8-0.1 l0.4-0.7c0,0,0.9-1.5,1.5-2.6c0-0.1,0.1-0.1,0.1-0.2c0.1-0.1,0.2-0.3,0.2-0.4l0,0c0,0-0.1-0.2-1.1-0.5l-0.2,0 c-1-0.3-1.5-0.4-1.8-0.4c-0.2,0-0.2,0-0.7,0.6c-0.1,0.1-0.2,0.3-0.4,0.5l-1.6,2.1l-8.6-1.5C55.6,23.7,55.2,23.6,54.5,23.6z"></path> </g> <g> <path class="st3" d="M56.5,41.3L56.5,41.3c-0.6,0-1.1-0.3-1.2-0.3l-7.1-2.6c-0.5-0.3-0.8-0.6-0.9-1 c-0.2-0.8,0.5-1.7,0.5-1.8c0,0,3.8-5.4,5.2-7.7c0.9-1.4,1.9-1.7,2.6-1.7c0.6,0,0.9,0.2,1,0.2c0,0,4.6,1.2,7.8,1.9 c1,0.1,1.6,0.3,1.8,0.8c0.3,0.7-0.4,1.4-0.4,1.5c-0.2,0.3-5.6,8.1-7.1,9.7C58,41,57.3,41.3,56.5,41.3z M55.6,26.5 c-0.6,0-1.6,0.3-2.4,1.5c-1.4,2.3-5.2,7.7-5.2,7.8c0,0-0.6,0.8-0.5,1.5c0.1,0.4,0.3,0.6,0.8,0.9l7.2,2.6 c0,0,0.4,0.3,1.1,0.3c0.7,0,1.3-0.3,1.9-0.9c1.5-1.6,7-9.6,7.1-9.7c0,0,0.6-0.7,0.4-1.2c-0.2-0.4-0.7-0.6-1.6-0.7 c-3.3-0.7-7.8-1.9-7.8-1.9C56.4,26.7,56.1,26.5,55.6,26.5z"></path> </g> </g> <g> <path class="st1" d="M69.9,40.8c0,3.5-2.8,6.3-6.2,6.2l-23.4-0.2c-3.5,0-6.3-2.9-6.3-6.3l0,0c0-3.5,2.8-6.3,6.2-6.2l23.4,0.2 C67.1,34.5,69.9,37.3,69.9,40.8L69.9,40.8z"></path> </g> <g> <path class="st0" d="M69.8,40.4c0,3.5-2.8,6.3-6.2,6.2l-23.4-0.2c-3.4,0-6.3-2.9-6.3-6.3l0,0c0-3.5,2.8-6.3,6.2-6.2l23.4,0.2 C67,34.1,69.8,37,69.8,40.4L69.8,40.4z"></path> </g> <g> <g> <path class="st1" d="M43,45.3c-0.4,0.2-1.3,0.4-2.5,0.4c-3.4,0-5.1-2.2-5.2-5c0-3.4,2.3-5.2,5.3-5.2c1.1,0,2,0.3,2.4,0.5 l-0.4,1.8c-0.4-0.2-1.1-0.4-1.9-0.4c-1.8,0-3.1,1-3.1,3.2c0,2,1.2,3.2,3.2,3.2c0.7,0,1.4-0.1,1.8-0.3L43,45.3z"></path> </g> <g> <path class="st1" d="M50.2,43.9c0,0.7,0,1.3,0.1,1.7l-2,0l-0.1-0.7h0c-0.5,0.6-1.2,0.9-2,0.9c-1.4,0-2.3-1.1-2.3-2.2 c0-1.9,1.6-2.7,4.1-2.7v-0.1c0-0.4-0.2-0.9-1.3-0.9c-0.7,0-1.5,0.2-2,0.5l-0.4-1.4c0.5-0.3,1.5-0.6,2.8-0.6 c2.4,0,3.1,1.4,3.1,3.1L50.2,43.9z M48,42.2c-1.2,0-2.1,0.3-2.1,1.1c0,0.6,0.4,0.9,0.9,0.9c0.6,0,1-0.4,1.1-0.8 c0-0.1,0-0.3,0-0.4L48,42.2z"></path> </g> <g> <path class="st1" d="M51.9,43.7c0.4,0.3,1.3,0.5,1.9,0.6c0.7,0,0.9-0.2,0.9-0.6c0-0.4-0.2-0.5-1.1-0.8c-1.5-0.5-2-1.3-2-2.1 c0-1.3,1.1-2.3,2.9-2.3c0.8,0,1.6,0.2,2,0.4l-0.4,1.5c-0.3-0.2-0.9-0.4-1.5-0.4c-0.5,0-0.8,0.2-0.8,0.6 c0,0.3,0.3,0.5,1.1,0.8c1.4,0.5,1.9,1.2,1.9,2.2c0,1.3-1,2.3-3.1,2.3c-0.9,0-1.8-0.2-2.3-0.5L51.9,43.7z"></path> </g> <g> <path class="st1" d="M58.2,35.3l2.2,0l0,4.1h0c0.2-0.3,0.5-0.6,0.9-0.7c0.3-0.2,0.7-0.3,1.1-0.3c1.4,0,2.5,1,2.5,3.1l0,4.2 l-2.2,0l0-3.9c0-0.9-0.3-1.6-1.2-1.6c-0.6,0-0.9,0.4-1.1,0.8c-0.1,0.1-0.1,0.3-0.1,0.5l0,4.2l-2.2,0L58.2,35.3z"></path> </g> </g> <g> <g> <path class="st4" d="M42.9,44.8c-0.4,0.2-1.3,0.4-2.5,0.4c-3.4,0-5.1-2.2-5.2-5c0-3.4,2.4-5.2,5.3-5.2c1.1,0,2,0.2,2.4,0.5 l-0.4,1.8c-0.4-0.2-1.1-0.4-1.9-0.4c-1.8,0-3.1,1-3.1,3.2c0,2,1.2,3.2,3.2,3.2c0.7,0,1.4-0.1,1.8-0.3L42.9,44.8z"></path> </g> <g> <path class="st4" d="M50.1,43.3c0,0.7,0,1.3,0.1,1.7l-2,0l-0.1-0.7h0c-0.5,0.6-1.2,0.9-2,0.9c-1.4,0-2.3-1.1-2.3-2.2 c0-1.9,1.6-2.7,4.1-2.7v-0.1c0-0.4-0.2-0.9-1.3-0.9c-0.7,0-1.5,0.2-2,0.5l-0.4-1.4c0.5-0.3,1.5-0.6,2.8-0.6 c2.4,0,3.1,1.4,3.1,3.1L50.1,43.3z M47.9,41.7c-1.2,0-2.1,0.3-2.1,1.1c0,0.6,0.4,0.9,0.9,0.9c0.5,0,1-0.4,1.1-0.8 c0-0.1,0-0.2,0-0.4L47.9,41.7z"></path> </g> <g> <path class="st4" d="M51.8,43.2c0.4,0.3,1.3,0.5,1.9,0.6c0.7,0,0.9-0.2,0.9-0.6c0-0.4-0.2-0.5-1.1-0.8c-1.5-0.5-2-1.3-2-2.1 c0-1.3,1.1-2.3,2.9-2.3c0.8,0,1.6,0.2,2,0.4l-0.4,1.5c-0.3-0.2-0.9-0.4-1.5-0.4c-0.5,0-0.8,0.2-0.8,0.6 c0,0.3,0.3,0.5,1.2,0.8c1.3,0.5,1.9,1.2,1.9,2.2c0,1.3-1,2.3-3.1,2.3c-0.9,0-1.8-0.2-2.3-0.5L51.8,43.2z"></path> </g> <g> <path class="st4" d="M58.1,34.8l2.2,0l0,4.1h0c0.2-0.3,0.5-0.6,0.9-0.7c0.3-0.2,0.7-0.3,1.1-0.3c1.4,0,2.5,1,2.5,3.1l0,4.2 l-2.2,0l0-3.9c0-0.9-0.3-1.6-1.2-1.6c-0.6,0-0.9,0.4-1.1,0.8c-0.1,0.1-0.1,0.3-0.1,0.5l0,4.2l-2.2,0L58.1,34.8z"></path> </g> </g> <g> <g> <g> <path class="st0" d="M9,33.6c0-1.5,1.4-2.8,3.1-2.8l0.1,14.2l-3.2,0L9,33.6z"></path> <path class="st0" d="M12.5,45.3l-3.6,0L8.8,33.6c0-0.7,0.3-1.4,0.8-2c0.6-0.6,1.5-1,2.5-1l0.2,0L12.5,45.3z M9.3,44.8 l2.7,0L12,31.1c-0.8,0.1-1.5,0.4-2,0.9c-0.5,0.5-0.7,1.1-0.7,1.7L9.3,44.8z"></path> </g> <g> <path class="st0" d="M16,44.4L16,33.7c0-0.9-0.5-1.6-1.2-2.2c-0.5-0.4-1.2-0.6-2-0.6l0,0.6l0,0l0,0l0.1,10.7 c0,0.9,0.5,1.6,1.2,2.2c0.5,0.4,1.2,0.6,2,0.6L16,44.4L16,44.4L16,44.4z"></path> <path class="st0" d="M16.3,45.3H16c-0.8,0-1.5-0.2-2.1-0.7c-0.8-0.6-1.3-1.4-1.3-2.3l-0.1-11.6h0.2c0.8,0,1.5,0.2,2.1,0.7 c0.8,0.6,1.3,1.4,1.3,2.3L16.3,45.3z M13,31.1l0.1,11.2c0,0.7,0.4,1.5,1.1,2c0.5,0.4,1,0.6,1.6,0.6l-0.1-11.2 c0-0.8-0.4-1.5-1.1-2C14.2,31.3,13.6,31.1,13,31.1z"></path> </g> <g> <path class="st0" d="M23.6,33.7c0-1.5-1.4-2.8-3.2-2.8l0.1,14.2l3.1,0L23.6,33.7z"></path> <path class="st0" d="M23.9,45.4l-3.6,0l-0.1-14.6h0.2c1.8,0,3.4,1.4,3.4,3L23.9,45.4z M20.7,44.9l2.7,0l-0.1-11.2 c0-1.4-1.2-2.5-2.7-2.6L20.7,44.9z"></path> </g> <g> <path class="st0" d="M16.7,44.4l-0.1-10.7c0-0.9,0.5-1.6,1.2-2.1c0.5-0.4,1.2-0.6,2-0.6l0,0.6l0,0v0l0.1,10.7 c0,0.9-0.5,1.6-1.2,2.1c-0.5,0.4-1.2,0.6-2,0.6L16.7,44.4L16.7,44.4L16.7,44.4z"></path> <path class="st0" d="M16.7,45.3l-0.2,0l-0.1-11.6c0-0.9,0.4-1.7,1.2-2.3c0.6-0.4,1.3-0.7,2.1-0.7H20l0.1,11.6 c0,0.9-0.4,1.7-1.2,2.3C18.2,45,17.5,45.3,16.7,45.3z M19.6,31.1c-0.6,0-1.2,0.2-1.6,0.6c-0.7,0.5-1.1,1.2-1.1,2l0.1,11.2 c0.6,0,1.2-0.2,1.7-0.6c0.7-0.5,1.1-1.2,1.1-2L19.6,31.1z"></path> </g> </g> <g> <g> <path class="st2" d="M9,33.6c0-1.5,1.4-2.8,3.1-2.8l0.1,14.2l-3.2,0L9,33.6z"></path> </g> <g> <path class="st4" d="M16,44.4L16,33.7c0-0.9-0.5-1.6-1.2-2.2c-0.5-0.4-1.2-0.6-2-0.6l0,0.6l0,0l0,0l0.1,10.7 c0,0.9,0.5,1.6,1.2,2.2c0.5,0.4,1.2,0.6,2,0.6L16,44.4L16,44.4L16,44.4z"></path> </g> <g> <path class="st4" d="M23.6,33.7c0-1.5-1.4-2.8-3.2-2.8l0.1,14.2l3.1,0L23.6,33.7z"></path> </g> <g> <path class="st2" d="M16.7,44.4l-0.1-10.7c0-0.9,0.5-1.6,1.2-2.1c0.5-0.4,1.2-0.6,2-0.6l0,0.6l0,0v0l0.1,10.7 c0,0.9-0.5,1.6-1.2,2.1c-0.5,0.4-1.2,0.6-2,0.6L16.7,44.4L16.7,44.4L16.7,44.4z"></path> </g> </g> </g> </g> <g> <path class="st4" d="M46.5,53.9c-0.1,0.3-0.4,0.4-0.7,0.3L41,51.9c-0.3-0.1-0.4-0.4-0.2-0.7l0,0c0.1-0.3,0.4-0.4,0.7-0.3 l4.8,2.3C46.5,53.3,46.6,53.7,46.5,53.9L46.5,53.9z"></path> </g> <g> <g> <polygon class="st0" points="37.2,31 33.4,31 30.6,36.1 32.3,39.2 "></polygon> <path class="st0" d="M32.3,39.6l-2-3.4l3-5.3l4.2,0L32.3,39.6z M30.8,36.1l1.6,2.7l4.5-7.6l-3.3,0L30.8,36.1z"></path> </g> <g> <polygon class="st0" points="23.8,30.9 28.9,39.6 28.9,45.3 32.1,45.3 32,39.7 26.9,30.9 "></polygon> <path class="st0" d="M32.3,45.5l-3.5,0l0-5.8l-5.3-9l3.6,0l5.2,8.9L32.3,45.5z M29.1,45.1l2.8,0l0-5.3l-5.1-8.6l-2.7,0l5,8.4 L29.1,45.1z"></path> </g> </g> <g> <g> <polygon class="st4" points="37.2,31 33.4,31 30.6,36.1 32.3,39.2 "></polygon> </g> <g> <polygon class="st2" points="23.8,30.9 28.9,39.6 28.9,45.3 32.1,45.3 32,39.7 26.9,30.9 "></polygon> </g> </g> </g> </g> </g> </g> <g> <g> <g> <g> <g> <path class="st4" d="M9.4,49c0.1,0.1,0.2,0.1,0.3,0.1c0.1,0,0.2,0,0.3-0.1c0.1-0.1,0.1-0.2,0.2-0.3c0,0,0-0.1,0-0.1 c-0.1,0.1-0.2,0.1-0.3,0.1c-0.2,0-0.3-0.1-0.3-0.3c0-0.2,0.1-0.4,0.3-0.6l-0.7,0l0.1-0.3l2.2,0l-0.1,0.3l-0.8,0 c0,0.2,0.1,0.2,0.3,0.2c0,0,0.1,0,0.1,0l0.1,0.2c-0.2,0.3-0.3,0.5-0.3,0.6c0,0.2-0.1,0.3-0.1,0.4c0,0.1,0,0.1,0,0.2l-0.2,0.1 c0-0.1-0.1-0.2-0.1-0.3c0-0.1,0-0.2,0-0.3c0-0.2,0.1-0.4,0.3-0.7c-0.1,0-0.3-0.1-0.3-0.2c-0.1-0.1-0.2-0.2-0.2-0.4 C10,48,9.9,48.2,9.8,48.4c0,0,0,0,0,0.1c0,0.1,0,0.1,0.1,0.1c0.1,0,0.2-0.1,0.3-0.2l0.3,0c0,0,0,0.1,0,0.2c0,0.1,0,0.2,0,0.3 c-0.1,0.5-0.4,0.7-0.8,0.7c-0.1,0-0.2,0-0.2-0.1c0,0-0.1-0.1-0.2-0.2c0-0.1-0.1-0.3-0.1-0.6l0.2-0.2C9.3,48.6,9.3,48.8,9.4,49 z"></path> </g> <g> <path class="st4" d="M11.7,47.9l-0.4,1.7H11l0.4-1.7l-0.2,0l0.1-0.3l0.2,0c0,0,0-0.1,0-0.1c0-0.1-0.1-0.3-0.2-0.3 C11.2,47,11.1,47,11,47c-0.1,0-0.3,0-0.5,0.1c-0.1,0-0.2,0.1-0.5,0.3l-0.1-0.2c0.2-0.2,0.4-0.3,0.6-0.4 c0.2-0.1,0.4-0.1,0.6-0.1c0.2,0,0.4,0.1,0.5,0.2c0.2,0.1,0.3,0.3,0.3,0.5c0,0.1,0,0.1,0,0.2l0.2,0l-0.1,0.3H11.7z"></path> </g> <g> <path class="st4" d="M13.4,47.9L13,49.6h-0.2c-0.1-0.2-0.2-0.4-0.4-0.5c-0.2-0.1-0.4-0.2-0.6-0.2l0-0.3 c0.1-0.1,0.4-0.2,0.7-0.4c0.1-0.1,0.4-0.1,0.7-0.3v0l-1.4,0l0.1-0.3l1.9,0l-0.1,0.3H13.4z M13.1,48.2 c-0.2,0.1-0.5,0.2-0.9,0.4c0.3,0.1,0.5,0.3,0.7,0.5L13.1,48.2z"></path> </g> <g> <path class="st4" d="M15.2,47.9l-0.4,1.7l-0.3,0l0-0.2c0,0,0-0.1,0-0.1c0-0.1-0.1-0.3-0.2-0.4c-0.1-0.2-0.2-0.2-0.4-0.2 c-0.1,0-0.1,0-0.2,0.1c-0.1,0.1-0.1,0.1-0.1,0.2c0,0.1,0.1,0.2,0.2,0.2c0,0,0.1,0,0.2,0l0,0.3c-0.1,0-0.2,0.1-0.3,0.1 c-0.1,0-0.2,0-0.2-0.1c-0.1-0.1-0.1-0.2-0.1-0.3c0-0.2,0.1-0.4,0.3-0.5c0.1-0.1,0.3-0.2,0.4-0.2c0.3,0,0.5,0.2,0.6,0.5 l0.2-0.9l-1.4,0l0.1-0.3l1.9,0l-0.1,0.3H15.2z"></path> </g> <g> <path class="st4" d="M15.7,47.9l-0.3,1.4l0.1,0c0.2,0,0.3,0,0.5-0.1c0.3-0.1,0.4-0.3,0.4-0.5c0-0.1-0.1-0.1-0.2-0.2 c0,0-0.1,0-0.3,0.1l-0.1-0.3c0.1,0,0.1-0.1,0.2-0.1c0.1,0,0.2,0,0.3,0c0.2,0,0.3,0.1,0.3,0.4c0,0.1,0,0.1,0,0.2 c0,0.2-0.2,0.4-0.4,0.5c-0.2,0.1-0.4,0.2-0.6,0.3c-0.1,0-0.4,0-0.7,0l0.4-1.7h-0.2l0.1-0.3l1.2,0l0,0c0,0,0-0.1,0-0.1 c0-0.1,0-0.2-0.1-0.2c-0.1,0-0.1-0.1-0.2-0.1c-0.1,0-0.4,0.1-0.7,0.2l0-0.2c0.3-0.2,0.6-0.3,0.8-0.3c0.1,0,0.3,0,0.4,0.1 c0.1,0.1,0.2,0.2,0.2,0.4c0,0,0,0.1,0,0.1H17l-0.1,0.3L15.7,47.9z"></path> </g> <g> <path class="st4" d="M17.3,47.9l-0.4,1.7h-0.3l0.4-1.7l-0.3,0l0.1-0.3l0.8,0l-0.1,0.3H17.3z"></path> </g> <g> <path class="st4" d="M17.9,49.8c-0.2,0-0.4,0-0.5-0.1c-0.1-0.1-0.1-0.3-0.1-0.4c0-0.1,0-0.2,0-0.3c0.1-0.3,0.3-0.6,0.6-0.9 l-0.6,0l0.1-0.3l1,0l-0.1,0.3c-0.2,0.1-0.4,0.2-0.5,0.4c-0.2,0.2-0.3,0.4-0.3,0.6c0,0.1,0,0.2,0,0.3c0,0.2,0.1,0.3,0.4,0.3 c0,0,0.1,0,0.2-0.1l-0.1,0.4C18,49.7,17.9,49.8,17.9,49.8z"></path> </g> <g> <path class="st4" d="M19.4,47.9L19.4,47.9c0.1,0,0.3,0.1,0.4,0.2c0.1,0.1,0.2,0.2,0.2,0.4c0,0.2-0.1,0.4-0.3,0.5 c-0.1,0.1-0.2,0.1-0.4,0.1c0,0,0,0-0.1,0l0.1-0.3c0.1,0,0.1,0,0.1,0c0.1,0,0.1,0,0.2-0.1c0,0,0.1-0.1,0.1-0.2 c0-0.1-0.1-0.2-0.3-0.2L19,49.6l-0.3,0c0-0.2-0.1-0.4-0.2-0.5c-0.1-0.2-0.3-0.2-0.4-0.2l0-0.3c0.1-0.1,0.3-0.2,0.5-0.3 l0.5-0.3l0,0l-0.9,0l0.1-0.3l2.1,0l-0.1,0.3L19.4,47.9z M19,48.3c-0.1,0-0.3,0.2-0.5,0.4c0.1,0.1,0.2,0.2,0.3,0.5L19,48.3z"></path> </g> <g> <path class="st4" d="M22.3,47.9l-0.4,1.7l-0.3,0l0.2-0.9c0,0,0,0,0-0.1c0-0.1,0-0.1-0.1-0.1c-0.1,0-0.2,0.1-0.3,0.2 c-0.2,0.3-0.3,0.4-0.3,0.4c-0.1,0.1-0.3,0.2-0.4,0.2c-0.1,0-0.2,0-0.3-0.1l0.1-0.4c0.1,0.1,0.2,0.2,0.2,0.2 c0.1,0,0.1-0.1,0.2-0.2c0.1-0.2,0.2-0.3,0.2-0.5c0-0.2-0.1-0.4-0.3-0.5l-0.2,0l0.1-0.3l1.7,0l-0.1,0.3H22.3z M22,47.9l-0.6,0 c0.1,0.1,0.1,0.2,0.1,0.4c0.1-0.1,0.2-0.1,0.2-0.1c0.1,0,0.1,0,0.2,0.1L22,47.9z"></path> </g> <g> <path class="st4" d="M23.4,49.9c-0.1-0.1-0.3-0.3-0.5-0.4c-0.2-0.1-0.4-0.2-0.6-0.2l0-0.4c0.1,0,0.2,0,0.3,0 c0.1,0,0.3,0,0.4-0.1c0.2-0.1,0.3-0.2,0.4-0.3c0,0,0-0.1,0-0.1c0-0.1,0-0.1-0.1-0.2c-0.1,0-0.1-0.1-0.2-0.1 c-0.2,0-0.3,0-0.3,0.2c0,0.1,0,0.1,0.2,0.1l-0.2,0.3c-0.1,0-0.1,0-0.2-0.1c-0.1,0-0.1-0.1-0.1-0.2c0,0,0-0.1,0-0.1 c0-0.2,0.1-0.3,0.3-0.4C22.8,48,23,48,23.1,48c0.1,0,0.3,0,0.4,0.1c0.1,0.1,0.2,0.2,0.2,0.4c0,0,0,0.1,0,0.1 c-0.1,0.3-0.3,0.5-0.7,0.7c0.2,0.1,0.4,0.3,0.6,0.5L23.4,49.9z M22.4,47.9l0.1-0.3l1.6,0L24,48L22.4,47.9z"></path> </g> <g> <path class="st4" d="M24.1,49.1c0.1,0.1,0.2,0.1,0.3,0.1c0.1,0,0.2,0,0.3-0.1c0.1-0.1,0.1-0.2,0.2-0.3c0,0,0-0.1,0-0.1 c-0.1,0.1-0.2,0.1-0.3,0.1c-0.2,0-0.3-0.1-0.3-0.3c0-0.2,0.1-0.4,0.3-0.6l-0.7,0l0.1-0.3l2.2,0L26,48l-0.8,0 c0,0.2,0.1,0.2,0.3,0.2c0,0,0.1,0,0.1,0l0.1,0.3c-0.2,0.3-0.3,0.5-0.3,0.6c0,0.2-0.1,0.3-0.1,0.4c0,0.1,0,0.1,0,0.2l-0.2,0.1 c0-0.1-0.1-0.2-0.1-0.3c0-0.1,0-0.2,0-0.3c0-0.2,0.1-0.4,0.3-0.7c-0.1,0-0.2-0.1-0.3-0.2c-0.1-0.1-0.2-0.2-0.2-0.4 c-0.2,0.1-0.3,0.3-0.4,0.5c0,0,0,0,0,0.1c0,0,0,0.1,0.1,0.1c0.1,0,0.2-0.1,0.3-0.2h0.3c0,0.1,0,0.1,0,0.2c0,0.1,0,0.2,0,0.3 c-0.1,0.5-0.4,0.7-0.8,0.7c-0.1,0-0.2,0-0.2-0.1c0,0-0.1-0.1-0.2-0.1c0-0.1-0.1-0.3-0.1-0.6l0.2-0.2 C24,48.7,24,48.9,24.1,49.1z"></path> </g> <g> <path class="st4" d="M27.9,48L27.9,48c0.1,0,0.3,0.1,0.4,0.2c0.1,0.1,0.2,0.2,0.2,0.4c0,0.2-0.1,0.4-0.2,0.5 c-0.1,0.1-0.2,0.1-0.4,0.1c0,0,0,0-0.1,0l0.1-0.3c0.1,0,0.1,0,0.1,0c0.1,0,0.1,0,0.2-0.1c0-0.1,0.1-0.1,0.1-0.2 c0-0.1-0.1-0.2-0.3-0.2l-0.3,1.4h-0.3c0-0.2-0.1-0.4-0.2-0.5c-0.1-0.2-0.3-0.2-0.4-0.2l0-0.3c0.1-0.1,0.3-0.2,0.5-0.3l0.5-0.3 l0,0l-0.9,0l0.1-0.3l2.1,0L28.7,48L27.9,48z M27.5,48.4c-0.1,0-0.3,0.2-0.5,0.4c0.1,0.1,0.2,0.2,0.3,0.5L27.5,48.4z"></path> </g> <g> <path class="st4" d="M30.2,48l-0.4,1.7l-0.3,0c-0.1-0.2-0.2-0.3-0.4-0.5c-0.2-0.1-0.4-0.2-0.6-0.2l0-0.3 c0.4-0.2,0.8-0.4,1.4-0.6v0l-1.4,0l0.1-0.3l1.8,0L30.4,48L30.2,48z M29,49.8c-0.1-0.1-0.1-0.2-0.3-0.3l0.2-0.3 c0.1,0.1,0.2,0.2,0.3,0.3L29,49.8z M29.8,48.4c-0.3,0.1-0.6,0.2-0.8,0.4c0.2,0.1,0.5,0.3,0.6,0.5L29.8,48.4z"></path> </g> <g> <path class="st4" d="M30.2,49c-0.1,0-0.1,0-0.2-0.1c-0.1,0-0.1-0.1-0.2-0.1c0,0,0,0,0-0.1c0,0,0-0.2,0-0.3 c0.1,0.1,0.2,0.2,0.2,0.2c0.1,0,0.1,0.1,0.2,0.1c0.1,0,0.2-0.1,0.2-0.1c0,0,0,0,0,0c0,0,0-0.1-0.1-0.1c0,0-0.1,0-0.2,0.1 l0-0.3c0.1-0.1,0.2-0.1,0.3-0.1c0.2,0,0.2,0.1,0.2,0.3c0,0,0,0.1,0,0.1c0,0.1-0.1,0.2-0.2,0.3C30.4,49,30.3,49,30.2,49z M30.1,48l0.1-0.3l0.9,0L31,48L30.1,48z"></path> </g> <g> <path class="st4" d="M32.5,48l-0.4,1.7l-0.3,0l0-0.2c0,0,0-0.1,0-0.1c0-0.2-0.1-0.3-0.2-0.4c-0.1-0.2-0.2-0.2-0.4-0.2 c-0.1,0-0.1,0-0.2,0.1c-0.1,0.1-0.1,0.1-0.1,0.2c0,0.1,0.1,0.2,0.2,0.2c0,0,0.1,0,0.2,0l0,0.3c-0.1,0-0.2,0.1-0.3,0.1 c-0.1,0-0.2,0-0.2-0.1c-0.1-0.1-0.1-0.2-0.1-0.3c0-0.2,0.1-0.4,0.3-0.5c0.1-0.1,0.3-0.2,0.4-0.2c0.3,0,0.5,0.2,0.6,0.5 l0.2-0.9l-1.4,0l0.1-0.3l1.9,0L32.7,48H32.5z"></path> </g> </g> </g> </g> </g> </g> </svg> 