<?xml version="1.0" encoding="UTF-8"?> <svg xmlns="http://www.w3.org/2000/svg" xmlns:xlink="http://www.w3.org/1999/xlink" version="1.1" id="Layer_1" x="0px" y="0px" width="80px" height="80px" viewBox="0 0 80 80" style="enable-background:new 0 0 80 80;" xml:space="preserve"> <style type="text/css"> .st0{fill:#231F20;} .st1{fill:#EEEEEE;} .st2{fill:#01A54C;} .st3{fill:#CD4032;} .st4{fill:#2C3A8B;} </style> <title>mc_vrt_rgb_pos</title> <g> <path class="st0" d="M60.5,34.5c0,7-9.2,12.6-20.6,12.6c-11.4,0-20.6-5.7-20.6-12.6c0-6.9,9.2-12.6,20.6-12.6 C51.3,21.9,60.5,27.6,60.5,34.5z"></path> <g> <g> <path class="st1" d="M60.5,33.3c0,7-9.2,12.6-20.6,12.6c-11.4,0-20.6-5.6-20.6-12.6c0-7,9.2-12.6,20.6-12.6 C51.3,20.7,60.5,26.4,60.5,33.3z"></path> <g> <path class="st2" d="M44.1,35.5c-3.4-3.9-1.1-7,0.4-8.2c3.4-2.6,7.1-3.9,7.8-4.1c-0.4-0.2-0.8-0.4-1.2-0.5 c-5.6,1.6-9.1,4.3-9.7,4.7c-4.8,3-2.9,6.3-2.5,7c2.8,5,8.3,9.9,9,10.5c1.7-0.4,3.2-1,4.7-1.6C47.9,40.1,44.7,36.3,44.1,35.5z"></path> <path class="st3" d="M39.8,26.8c2.4-1.8,8.7-4.3,9.6-4.7c-0.6-0.2-1.1-0.3-1.7-0.5c-4.2,1.4-9.4,3.7-12.7,5.9 c-3.7,2.5-3.7,4.9-2.7,7.5c1.9,4.9,6.4,10.1,7,10.9c0.1,0,0.2,0,0.4,0c1.9,0,3.7-0.1,5.5-0.4c-4.3-4.4-7.7-10-8-10.6 C35,29.7,38.2,28.1,39.8,26.8z"></path> <path class="st4" d="M35.3,26.4c3.4-2.2,7.4-3.9,10.6-5.1c-0.5-0.1-0.9-0.2-1.4-0.2c-1,0.3-7.2,2-12,4.6c-0.7,0.4-4.6,2.5-6,5 c-1.4,2.5-0.2,5.5,0.7,7.6c1,2.1,2.7,4.9,3.9,6.6c1.7,0.5,3.6,0.8,5.5,1c-0.8-1-5.8-7.4-6.4-11.5C30,33.1,29.4,30,35.3,26.4z"></path> </g> </g> <g> <path class="st0" d="M12,53.6c1.3,0,2.3,0,2.3,2.2c0,2.2-0.8,2.2-1.9,2.2h-1v-4.5H12z M10,52.5v6.7h2.5c0.4,0,1.6,0,2.2-0.8 c0.9-0.9,0.9-2.1,0.9-2.5c0-1.3-0.4-2-0.6-2.3c-0.7-1.1-1.8-1.1-2.6-1.1H10z"></path> <path class="st0" d="M18.9,53.6c1,0,1.1,0,1.3,0.1c0.3,0.1,0.5,0.4,0.5,0.7c0,0.7-0.7,0.8-1.1,0.8h-1.5v-1.5H18.9z M16.8,52.5 v6.7h2.3c1.4,0,1.9,0,2.3-0.2c0.7-0.3,1.1-1.1,1.1-1.8c0-0.4-0.1-1.3-1.3-1.6c0.6-0.3,1-0.9,1-1.5c0-0.6-0.3-1.1-0.7-1.3 c-0.5-0.3-1-0.4-1.9-0.4H16.8z M19.2,56.3c1,0,1.8,0,1.8,0.9c0,0.2-0.1,0.6-0.6,0.8c-0.2,0.1-0.8,0.1-1.1,0.1h-1.3v-1.8H19.2z"></path> <path class="st0" d="M25.7,53.6c1,0,1.1,0,1.3,0.1c0.4,0.1,0.5,0.4,0.5,0.7c0,0.7-0.7,0.8-1.1,0.8h-1.5v-1.5H25.7z M23.6,52.5 v6.7h2.3c1.4,0,1.9,0,2.2-0.2c0.7-0.3,1.1-1.1,1.1-1.8c0-0.4-0.1-1.3-1.3-1.6c0.6-0.3,0.9-0.9,0.9-1.5c0-0.6-0.3-1.1-0.7-1.3 c-0.4-0.3-1-0.4-1.9-0.4H23.6z M26,56.3c0.9,0,1.8,0,1.8,0.9c0,0.2-0.1,0.6-0.6,0.8c-0.2,0.1-0.8,0.1-1.1,0.1h-1.2v-1.8H26z"></path> <path class="st0" d="M30.4,52.5h1.3v5.6h3.4v1.1h-4.7V52.5z"></path> <path class="st0" d="M38.7,52.5h1.3l2.7,4.5l0,0v-4.5h1.3v6.7h-1.4l-2.7-4.4h0v4.4h-1.3V52.5z"></path> <path class="st0" d="M45.5,52.5h5v1.1h-3.6v1.5h3.4v1.1h-3.4v1.8h3.8v1.1h-5.1V52.5z"></path> <path class="st0" d="M53.4,55.7l-2.1-3.2h1.6l1.3,2.2l1.3-2.2h1.6l-2.1,3.3l2.3,3.5h-1.7l-1.5-2.3l-1.5,2.3h-1.6L53.4,55.7z"></path> <path class="st0" d="M59.4,52.5v3.6c0,0.8,0,1.1,0.2,1.4c0.3,0.5,0.8,0.6,1.2,0.6c1.3,0,1.3-0.8,1.3-2v-3.7h1.3V56 c0,1.2,0,1.9-0.4,2.4c-0.5,0.8-1.4,0.9-2.2,0.9C58,59.3,58,57.6,58,56v-3.6H59.4z"></path> <path class="st0" d="M65.9,56.9c0.1,0.4,0.2,1.3,1.4,1.3c1,0,1.4-0.5,1.4-0.9c0-0.6-0.5-0.7-1.7-1c-0.7-0.2-2.1-0.5-2.1-2 c0-0.7,0.5-1.9,2.4-1.9c1.3,0,2.5,0.5,2.6,2.1l-1.4,0c-0.1-0.4-0.2-1-1.2-1c-0.4,0-1.1,0.1-1.1,0.7c0,0.4,0.4,0.6,1.5,0.9 c1,0.2,2.4,0.6,2.4,2.2c0,0.8-0.5,1.5-1.1,1.8c-0.6,0.3-1.3,0.3-1.6,0.3c-0.7,0-2.5,0-2.8-2.3L65.9,56.9z"></path> </g> </g> </g> </svg> 