<?xml version="1.0" encoding="UTF-8"?> <svg xmlns="http://www.w3.org/2000/svg" xmlns:xlink="http://www.w3.org/1999/xlink" version="1.1" id="Layer_1" x="0px" y="0px" width="80px" height="80px" viewBox="0 0 80 80" style="enable-background:new 0 0 80 80;" xml:space="preserve"> <style type="text/css"> .st0{fill:#231F20;} .st1{fill:#EC1C24;} .st2{fill:#FFFFFF;} .st3{fill:#808184;} .st4{fill:#121B21;} .st5{fill:#FFE600;} </style> <g> <g> <path class="st0" d="M21.9,53.8l-1.6-8.2h1.1h1.1l1,6.5h0l1.2-6.5h1.4h1.4l1.3,6.4h0l0.9-6.4h1.1h1.1L30,53.8h-1.4h-1.4L26,47.4h0 l-1.3,6.3h-1.4H21.9z"></path> <path class="st0" d="M34.5,53.9c-0.6,0-1.1-0.2-1.5-0.6c-0.4-0.4-0.5-0.9-0.5-1.6v-0.5c0-1,0.2-1.7,0.7-2c0.5-0.4,1.3-0.6,2.5-0.6 h0.7v-1c0-0.3-0.1-0.5-0.2-0.7c-0.1-0.2-0.3-0.2-0.5-0.2c-0.3,0-0.5,0.1-0.6,0.2c-0.1,0.2-0.2,0.4-0.2,0.7V48h-2.2v-0.2 c0-0.8,0.2-1.4,0.7-1.7c0.5-0.4,1.2-0.5,2.2-0.5c1,0,1.7,0.2,2.2,0.6c0.5,0.4,0.7,1,0.7,1.9v5.8h-2.1v-0.7l-0.1,0.1 C35.9,53.7,35.3,53.9,34.5,53.9z M36.4,49.9h-0.3c-0.5,0-0.9,0.1-1.1,0.3c-0.2,0.2-0.3,0.6-0.3,1.1v0.5c0,0.3,0.1,0.5,0.2,0.6 c0.1,0.1,0.3,0.2,0.5,0.2c0.3,0,0.5-0.1,0.7-0.4c0.2-0.3,0.2-0.7,0.2-1.2V49.9z"></path> <path class="st0" d="M40.4,42h1.1h1.1v11.7h-1.1h-1.1V42z"></path> <path class="st0" d="M44.5,42h1.1h1.1v11.7h-1.1h-1.1V42z"></path> <path class="st0" d="M51,53.9c-1,0-1.7-0.2-2.2-0.7c-0.4-0.5-0.7-1.3-0.7-2.4v-1.6c0-1.4,0.2-2.3,0.7-2.9c0.5-0.6,1.2-0.8,2.3-0.8 c1.2,0,2,0.2,2.4,0.7c0.4,0.5,0.6,1.4,0.6,2.7v1.2h-3.9v0.2c0,0.9,0.1,1.6,0.2,1.9c0.1,0.3,0.3,0.5,0.7,0.5c0.3,0,0.6-0.1,0.7-0.3 c0.1-0.2,0.2-0.6,0.2-1.1V51h2.1v0.2c0,0.9-0.2,1.6-0.8,2C52.9,53.7,52.1,53.9,51,53.9z M52.1,48.8v-0.5c0-0.6-0.1-1.1-0.2-1.3 c-0.1-0.2-0.4-0.3-0.7-0.3s-0.6,0.1-0.7,0.4c-0.1,0.3-0.2,0.8-0.2,1.6v0.1H52.1z"></path> <path class="st0" d="M59.8,53.8c-0.4,0.1-0.9,0.1-1.4,0.1c-0.7,0-1.2-0.2-1.5-0.6c-0.3-0.4-0.5-1-0.5-1.8v-4.5h-1.1v-1.4h1.1v-1.3 l2.2-0.9v2.2h1.3v1.4h-1.3v4.5c0,0.4,0,0.7,0.1,0.8c0.1,0.1,0.3,0.2,0.5,0.2c0.2,0,0.5,0,0.7-0.1V53.8z"></path> </g> <g> <g> <g> <path class="st1" d="M34.6,60.2c0,1.6-1.3,2.9-2.9,2.9c-1.6,0-2.9-1.3-2.9-2.9c0-1.6,1.3-2.9,2.9-2.9 C33.3,57.3,34.6,58.6,34.6,60.2z"></path> <path class="st2" d="M30.9,58.6l0.6-0.2c0,0-1,2.1-0.6,4.6c-0.1,0-0.5-0.2-1-0.5c0-0.2-0.2-1.1,0.3-2.6c-0.1,0-0.3,0.1-0.3,0.1 c0.1-0.2,0.4-0.8,0.4-0.8L30.9,58.6z"></path> </g> <g> <rect x="36.9" y="61.5" class="st1" width="22.3" height="0.1"></rect> </g> <g> <g> <path class="st3" d="M54.1,62.9C54.1,62.9,54.1,62.9,54.1,62.9c0.1,0,0.1-0.1,0.1-0.1v-0.6c0,0,0-0.1,0-0.1c0,0,0,0-0.1,0v0 h0.3v0c0,0-0.1,0-0.1,0c0,0,0,0,0,0.1v0.7c0,0,0,0,0,0c0,0,0,0,0,0c0,0,0,0,0,0c0,0,0,0,0.1,0c0.1,0,0.2,0,0.2,0 c0,0,0.1-0.1,0.1-0.2h0l-0.1,0.2L54.1,62.9L54.1,62.9z"></path> <path class="st3" d="M54.8,62.9C54.9,62.9,54.9,62.9,54.8,62.9c0.1,0,0.1-0.1,0.1-0.1v-0.6c0-0.1,0-0.1,0-0.1c0,0,0,0-0.1,0v0 h0.4v0c0,0-0.1,0-0.1,0c0,0,0,0,0,0.1v0.6c0,0.1,0,0.1,0,0.1c0,0,0,0,0.1,0v0L54.8,62.9L54.8,62.9z"></path> <path class="st3" d="M55.3,62.9C55.3,62.9,55.4,62.9,55.3,62.9c0.1-0.1,0.1-0.1,0.1-0.2v-0.6c0,0,0-0.1,0-0.1c0,0,0,0-0.1,0v0 h0.2l0.3,0.7l0.3-0.7h0.2v0c0,0-0.1,0-0.1,0c0,0,0,0,0,0.1v0.6c0,0,0,0.1,0,0.1c0,0,0,0,0.1,0v0H56v0c0,0,0.1,0,0.1,0 c0,0,0-0.1,0-0.1v-0.6l-0.3,0.8h0l-0.3-0.7v0.5c0,0.1,0,0.1,0,0.1c0,0,0,0,0.1,0v0L55.3,62.9L55.3,62.9z"></path> <path class="st3" d="M56.4,62.9C56.5,62.9,56.5,62.9,56.4,62.9c0.1,0,0.1-0.1,0.1-0.1v-0.6c0-0.1,0-0.1,0-0.1c0,0,0,0-0.1,0v0 h0.4v0c0,0-0.1,0-0.1,0c0,0,0,0,0,0.1v0.6c0,0.1,0,0.1,0,0.1c0,0,0,0,0.1,0v0L56.4,62.9L56.4,62.9z"></path> <path class="st3" d="M56.9,62h0.7l0,0.2h0c0-0.1,0-0.1-0.1-0.1c0,0-0.1,0-0.1,0h-0.1v0.7c0,0.1,0,0.1,0,0.1c0,0,0,0,0.1,0v0 h-0.4v0c0.1,0,0.1,0,0.1,0c0,0,0-0.1,0-0.1v-0.7h-0.1C57,62.1,57,62.1,56.9,62c0.1,0.1,0,0.2,0,0.2h0L56.9,62z"></path> <path class="st3" d="M57.7,62.9C57.7,62.9,57.8,62.9,57.7,62.9c0.1,0,0.1-0.1,0.1-0.1v-0.6c0,0,0-0.1,0-0.1c0,0,0,0-0.1,0v0 h0.7l0,0.2h0c0-0.1,0-0.1,0-0.1c0,0-0.1,0-0.1,0h-0.2c0,0,0,0,0,0c0,0,0,0,0,0v0.3h0.2c0.1,0,0.1,0,0.1,0c0,0,0-0.1,0-0.1h0 v0.3h0c0-0.1,0-0.1,0-0.1c0,0,0,0-0.1,0h-0.2v0.3c0,0,0,0,0,0c0,0,0.1,0,0.1,0c0.1,0,0.1,0,0.2,0c0,0,0.1-0.1,0.1-0.1h0 l-0.1,0.2L57.7,62.9L57.7,62.9z"></path> <path class="st3" d="M58.7,62.8v-0.7c0,0,0,0,0,0c0,0,0,0,0.1,0c0.1,0,0.2,0,0.3,0.1c0.1,0.1,0.1,0.2,0.1,0.3 c0,0.2,0,0.3-0.1,0.3C58.9,62.9,58.9,62.9,58.7,62.8C58.7,62.9,58.7,62.9,58.7,62.8C58.7,62.9,58.7,62.9,58.7,62.8z M58.5,62.9 h0.3c0.1,0,0.2,0,0.2,0c0,0,0.1,0,0.1-0.1c0.1,0,0.1-0.1,0.1-0.2c0-0.1,0-0.1,0-0.2c0-0.2-0.1-0.3-0.2-0.4 c-0.1,0-0.2-0.1-0.3-0.1h-0.3v0c0,0,0.1,0,0.1,0c0,0,0,0,0,0.1v0.6C58.6,62.8,58.6,62.9,58.5,62.9 C58.5,62.9,58.5,62.9,58.5,62.9L58.5,62.9z"></path> </g> <g> <path class="st3" d="M51.1,58.2h0.4c0.1,0,0.2,0,0.3,0c0.1,0,0.1,0,0.2,0.1c0,0,0.1,0.1,0.1,0.2c0,0.1,0,0.2-0.1,0.2 c0,0.1-0.1,0.1-0.2,0.1c-0.1,0-0.2,0-0.4,0h-0.4L51.1,58.2z M51.3,60.7c0.3,0,0.5,0,0.6-0.1c0.2-0.1,0.3-0.2,0.4-0.3 c0.1-0.2,0.1-0.3,0.1-0.5c0-0.1,0-0.3-0.1-0.4c-0.1-0.1-0.2-0.2-0.3-0.2c0.2-0.1,0.3-0.2,0.4-0.3c0.1-0.1,0.1-0.3,0.1-0.4 c0-0.1,0-0.2-0.1-0.3c0-0.1-0.1-0.2-0.2-0.2c-0.1-0.1-0.2-0.1-0.3-0.1c-0.1,0-0.2,0-0.4,0h-0.9l-0.5,3H51.3z M50.9,59.4h0.6 c0.1,0,0.2,0,0.3,0.1c0.1,0.1,0.1,0.1,0.1,0.2c0,0.1,0,0.2-0.1,0.2c0,0.1-0.1,0.1-0.2,0.2c-0.1,0-0.2,0-0.4,0h-0.5L50.9,59.4z"></path> <path class="st3" d="M54.1,59.7c0,0.1-0.1,0.3-0.1,0.3c0,0.1-0.1,0.1-0.2,0.2c-0.1,0-0.1,0.1-0.2,0.1c-0.1,0-0.1,0-0.2-0.1 c0,0-0.1-0.1-0.1-0.2c0-0.1,0-0.2,0.1-0.2c0.1-0.1,0.2-0.1,0.5-0.2C54,59.7,54,59.7,54.1,59.7L54.1,59.7z M53.7,58.9 c0.1,0,0.1-0.1,0.2-0.1c0.1,0,0.2,0,0.2,0.1c0,0,0.1,0.1,0.1,0.2c0,0,0,0.1,0,0.2c-0.1,0-0.2,0.1-0.5,0.1 c-0.3,0-0.5,0.1-0.6,0.2c-0.1,0.1-0.2,0.3-0.2,0.5c0,0.2,0.1,0.3,0.2,0.5c0.1,0.1,0.2,0.2,0.4,0.2c0.1,0,0.2,0,0.3-0.1 c0.1-0.1,0.2-0.1,0.3-0.2c0,0.1,0,0.2,0,0.2h0.5c0-0.1,0-0.2,0-0.3c0-0.1,0-0.3,0.1-0.5c0.1-0.3,0.1-0.5,0.1-0.6 c0-0.1,0-0.1,0-0.2c0-0.2-0.1-0.3-0.2-0.4c-0.1-0.1-0.3-0.2-0.5-0.2c-0.2,0-0.4,0.1-0.6,0.2c-0.1,0.1-0.2,0.3-0.3,0.4l0.5,0 C53.6,59,53.6,59,53.7,58.9z"></path> <path class="st3" d="M55.3,58.5h0.5l0,0.3c0.1-0.1,0.2-0.2,0.3-0.3c0.1-0.1,0.2-0.1,0.3-0.1c0.2,0,0.3,0.1,0.4,0.2 c0.1,0.1,0.1,0.2,0.1,0.4c0,0.1,0,0.2-0.1,0.4l-0.2,1.2h-0.5l0.2-1.2c0-0.2,0.1-0.3,0.1-0.3c0-0.1,0-0.1-0.1-0.2 c0,0-0.1-0.1-0.2-0.1c-0.1,0-0.2,0-0.3,0.1c-0.1,0.1-0.2,0.2-0.2,0.3c0,0.1-0.1,0.3-0.1,0.5l-0.2,0.9h-0.5L55.3,58.5z"></path> <path class="st3" d="M57.4,60.7l0.5-3h0.5L58,59.3l0.6-0.7h0.6l-0.7,0.8l0.4,1.4h-0.5l-0.2-1L57.9,60l-0.1,0.6H57.4z"></path> <path class="st3" d="M38.3,58.5c0.1-0.1,0.3-0.2,0.5-0.2c0.2,0,0.4,0.1,0.5,0.2c0.1,0.1,0.1,0.4,0.1,0.7 c-0.1,0.4-0.2,0.6-0.3,0.8c-0.1,0.1-0.3,0.2-0.5,0.2c-0.2,0-0.4-0.1-0.5-0.2c-0.1-0.1-0.1-0.4-0.1-0.7 C38,58.9,38.2,58.6,38.3,58.5z M37,60.2c0.1,0.3,0.3,0.4,0.5,0.6c0.2,0.1,0.5,0.2,0.9,0.2c0.4,0,0.7-0.1,1-0.2 c0.3-0.1,0.5-0.3,0.7-0.6c0.2-0.2,0.3-0.6,0.4-1c0.1-0.5,0-1-0.2-1.3c-0.2-0.3-0.6-0.4-1.2-0.4c-0.5,0-1,0.2-1.3,0.5 c-0.4,0.3-0.6,0.7-0.7,1.3C36.9,59.6,36.9,59.9,37,60.2z"></path> <path class="st3" d="M41.5,57.5l0.9,0l0.9,1.8l0.3-1.8l0.9,0l-0.5,3.3l-0.9,0L42.2,59l-0.3,1.8H41L41.5,57.5z"></path> <path class="st3" d="M45.5,57.5l2.3,0l-0.1,0.7l-1.4,0l-0.1,0.5l1.3,0l-0.1,0.7l-1.3,0l-0.1,0.7l1.5,0l-0.1,0.8l-2.3,0 L45.5,57.5z"></path> </g> </g> </g> <g> <g> <path class="st0" d="M21.6,61.1v0.4h-0.5v-3.9h0.5v1.3c0.1-0.1,0.3-0.3,0.5-0.3c0.2-0.1,0.4-0.1,0.6-0.1c0.2,0,0.4,0,0.6,0.1 c0.2,0.1,0.3,0.2,0.5,0.3c0.1,0.1,0.2,0.3,0.3,0.5c0.1,0.2,0.1,0.4,0.1,0.6c0,0.4-0.1,0.8-0.4,1.1c-0.3,0.3-0.7,0.4-1.1,0.4 c-0.2,0-0.4,0-0.5-0.1C21.9,61.3,21.8,61.2,21.6,61.1z M21.6,60c0,0.3,0.1,0.5,0.3,0.7c0.2,0.2,0.4,0.3,0.7,0.3 c0.3,0,0.5-0.1,0.7-0.3c0.2-0.2,0.3-0.4,0.3-0.7c0-0.3-0.1-0.5-0.3-0.7c-0.2-0.2-0.4-0.3-0.7-0.3c-0.3,0-0.5,0.1-0.7,0.3 C21.7,59.5,21.6,59.7,21.6,60z"></path> <path class="st0" d="M24.3,58.5h0.6l0.8,2.2l0.9-2.2h0.6l-1.6,3.9H25l0.4-1L24.3,58.5z"></path> </g> </g> </g> <g> <path class="st4" d="M53.6,26.9c0,0-0.5-1.9-2.2-1.8c0,0-1.1-0.1-1.4,0.5l-1,0.5v11.1h3c0,0,1.3-0.4,1.6-1.8l1.5,1.4 c0,0,1.7,1,3-0.4c0.5-0.5,0.8-1.4,0.4-2.5c0,0-0.2-0.4-0.4-0.6c-0.2-0.2-2.2-2.2-2.2-2.2l2.3-2.3c0,0,1.1-1.5,0.1-2.9 c-0.5-0.5-0.8-0.8-1.5-0.8c-0.7-0.1-1.2,0-1.5,0.3C55,25.7,53.6,26.9,53.6,26.9z"></path> <path class="st5" d="M52.6,29.4v-2.2c0,0-0.2-1.1-1.3-1.1c0,0-1.2,0.1-1.3,1.2v8.9h1.5c0,0,1.1-0.2,1.1-1c0-0.2,0-2.3,0-2.3 l3.2,3.2c0,0,0.9,0.4,1.5-0.2c0.1-0.1,0.6-0.7,0.3-1.5c-0.2-0.3-3.2-3.3-3.2-3.3l3.1-3.2c0,0,0.5-0.9-0.3-1.6 c-0.2-0.2-1-0.6-1.7,0L52.6,29.4z"></path> <circle class="st4" cx="31.3" cy="31.5" r="10"></circle> <path class="st5" d="M40.3,31.5c0,5-4,9-9,9c-5,0-9-4-9-9s4-9,9-9C36.2,22.6,40.3,26.6,40.3,31.5z"></path> <path class="st4" d="M29.5,29.2c0,0.6-0.5,1.1-1.1,1.1c-0.6,0-1.1-0.5-1.1-1.1c0-0.6,0.5-1.1,1.1-1.1C29,28.1,29.5,28.6,29.5,29.2 z"></path> <path class="st4" d="M35.3,29.2c0,0.6-0.5,1.1-1.1,1.1c-0.6,0-1.1-0.5-1.1-1.1c0-0.6,0.5-1.1,1.1-1.1 C34.8,28.1,35.3,28.6,35.3,29.2z"></path> <path class="st4" d="M36.5,31.5c0,2.7-2.3,4.9-5.1,4.9c-2.8,0-5.1-2.2-5.1-4.9H25c0,3.4,2.8,6.2,6.3,6.2c3.5,0,6.3-2.8,6.3-6.2 H36.5z"></path> <g> <g> <path class="st4" d="M50.1,29.4v-8.8c0,0-0.1-1.3-1.5-1.3c-0.4,0-1.6,0.1-2.4,1.1l-1.8-3c0,0-0.8-1.2-2.2-0.2 c-0.2,0.2-1.2,0.8-1.3,2.1c0,0-0.7-0.7-1.8-0.2c0,0-1.9,1.3-1,3.7c0.1,0.4,0.5,0.7,0.8,1.1c0.3,0.4,1.8,1.8,1.8,1.8L40,26.5 L38.5,28c0,0-0.6,0.6-0.6,1.4c0,0.8,0,5.3,0,5.3l1-0.1l1.7,1.7c0,0,0.8,0.9,1.5,0.9c0.7,0,3.6,0,3.6,0s2.1-0.6,3.3-2.2v2.2h1V33 C50.1,33,50.7,31.6,50.1,29.4z M45,32.3c-0.2,0.1-0.5,0.4-0.6,0.4c-0.2,0-1.1,0-1.1,0s-0.2-0.4-0.9-0.4c0,0,0.2-0.4,0.2-0.7 c0-0.3,0-1.1,0-1.1l0.9-0.8c0,0,1.4-0.5,1.9,0.6C45.3,30.3,46,31.5,45,32.3z"></path> </g> </g> <path class="st5" d="M47,24l-3.4-6.1c0,0-0.5,0-0.9,0.3c-0.4,0.3-1,1.2-0.6,2.1c0.4,1,1.7,3.1,2,3.5l-0.2,0l-3.8-3.8 c0,0-0.4-0.2-0.6,0.1c-0.3,0.3-0.6,0.8-0.6,1.4c0,0,0,0.8,0.4,1.2c0.4,0.4,3.1,3.2,3.1,3.2s-0.8,0.2-0.9,0.4 c-0.2,0.2-2.3,2.2-2.3,2.2s-0.4,0.4-0.4,0.7c0,0.4,0,4.2,0,4.2s2.1-0.2,2.6-1.7v-1.9c0,0,0.7-0.8,1.1-1.1c0,0,0.9-0.8,2.6-0.2 c0.4,0.2,1.8,1.3,1.4,3c-0.1,0.3-0.8,1.7-2,1.8c-0.2,0-1.6,0-1.6,0s-0.6-0.5-1.4-0.5c-0.2,0-1.4,0.2-1.9,0.8l2.1,2.1 c0,0,0.3,0.3,0.7,0.2c0.4,0,3.3,0,3.3,0s2.5-0.7,3.3-3.1c0.1-0.3,0.8-1.6,0.1-3.6v-8.8c0,0-0.1-0.3-0.5-0.3c-0.3,0-1.8,0.2-2,1.6 c0,0.3,0,0.6,0,0.8C46.6,23.1,47,24,47,24L47,24z"></path> </g> </g> </svg> 