<?xml version="1.0" encoding="UTF-8"?> <svg xmlns="http://www.w3.org/2000/svg" xmlns:xlink="http://www.w3.org/1999/xlink" version="1.1" id="Layer_1" x="0px" y="0px" width="80px" height="80px" viewBox="0 0 80 80" style="enable-background:new 0 0 80 80;" xml:space="preserve"> <style type="text/css"> .st0{fill:#125EAA;} </style> <g transform="translate(-128.218730,397.531990) rotate(-360.00) scale(0.095238,-0.095238)"> <path class="st0" d="M1994.2,3815.6c-5.3-1.1-9.6-2.1-9.7-2.1c-0.1,0-0.1-27.3-0.1-60.6v-60.6h9.8h9.8l0.1,28.4l0.1,28.4l1.9,3.8 c3.9,7.8,11,12,19.3,11.4c8.5-0.6,13.6-5.1,16.4-14.3c0.6-2,0.8-6.3,0.9-30.1l0.2-27.7l9.6,0.1l9.7,0.1l0.1,24.3 c0.2,33.2-0.4,39.4-4.4,47.5c-4.6,9.3-12.9,14.6-23.8,15.2c-5.9,0.3-9.9-0.6-15.2-3.2c-4.5-2.2-8.2-5.2-10.7-8.7 c-1.4-1.9-1.9-2.2-2.8-2.1l-1.2,0.1l-0.2,26.1l-0.2,26.1L1994.2,3815.6z"></path> <path class="st0" d="M1454.2,3816.8c-11.2-2.1-21.1-7.7-26.3-15.1c-4.6-6.4-6.2-12.1-5.9-20.3c0.4-8.7,2.9-14.3,9.3-20.3 c5.3-5.1,11.3-8.5,22.5-12.9c13.6-5.3,18-8.3,20.8-14c1.4-2.9,1.5-3.1,1.5-8.8c0-7-0.8-9.7-4.2-13.1c-4.1-4.2-9-5.8-17.9-5.8 c-8.8,0-15.8,1.6-23.9,5.3l-3.7,1.7l-0.6-2.3c-0.4-1.3-1.4-4.9-2.2-8l-1.5-5.7l1.6-0.8c8.9-4.5,23.3-6.9,35.1-5.9 c25.5,2.2,40.7,15.6,40.7,36c0,8.9-2.5,15.8-8.1,21.7c-5.4,5.8-11.9,9.7-24.9,14.8c-10.6,4.2-15.7,7-19.4,10.7 c-3.7,3.7-4.8,6.2-4.8,11.2c0,7.7,6.2,14.1,15.5,16c7.8,1.7,20.9,0,29-3.6c1.4-0.6,2.5-1.1,2.6-1c0,0.1,1.1,3.6,2.4,7.7 c2,6.6,2.2,7.6,1.6,8.1c-1.1,0.8-7.7,2.8-12.2,3.8C1475.4,3817.4,1459.4,3817.8,1454.2,3816.8z"></path> <path class="st0" d="M1789,3815.4c-20.8-3.1-35-11.3-44.7-25.7c-9.6-14.2-13-34.3-9-53.1c6.9-32.4,35.3-48.7,75.5-43.2 c4.1,0.6,13.1,2.6,13.5,3.1c0.2,0.2-2.1,11-2.3,11.3c-0.1,0.1-1.9-0.2-3.9-0.7c-7.1-1.7-10.2-2.1-18.6-2.1 c-9.7,0-13.7,0.8-20.1,3.8c-3.1,1.5-4.5,2.5-7.6,5.7c-3.2,3.2-4.2,4.6-5.9,8.1c-4,8.2-5.4,16.3-5.4,30.9c0,13.6,1.4,21.9,4.9,29.8 c2.7,6.2,8.1,12.4,13.2,15.3c3.7,2.1,9.8,4,15,4.6c7.4,0.8,18.1-0.2,25.3-2.5l3.2-1l1.6,5.8c0.9,3.2,1.5,5.9,1.4,6.1 c-0.3,0.5-6.2,2.2-10.7,3C1810.5,3815.3,1792.2,3815.9,1789,3815.4z"></path> <path class="st0" d="M1634.5,3782.4c-8.6-1.4-16.4-7.9-19.9-16.6c-0.9-2.3-1.1-2.5-2.6-2.6c-1.5-0.1-1.6-0.1-1.8,1.3 c-0.1,0.8-0.3,4.6-0.5,8.4c-0.1,3.8-0.3,7-0.4,7c-0.1,0.1-3.9-0.8-8.5-2l-8.4-2.1l0.3-5.3c0.2-3,0.3-21.8,0.3-41.9v-36.5h10h10 l0.2,25.5c0.2,24.6,0.2,25.6,1.1,29c1.4,5,3.4,8.4,6.6,11.4c4.7,4.4,9,5.9,16.3,5.9h4.4v9c0,9,0,9.1-1,9.3 C1639.5,3782.7,1636.3,3782.7,1634.5,3782.4z"></path> <path class="st0" d="M1679.2,3782.3c-16.3-2.3-28.2-12.4-33.9-28.6c-3.6-10.2-4.1-22.3-1.4-32.8c1.2-4.5,4.8-11.6,7.6-15.2 c9.3-11.3,25-16.5,44.7-14.7c9.9,0.9,22.1,3.7,22.1,5.1c0,1.1-2.3,11.6-2.7,11.9c-0.1,0.2-1.6,0-3.3-0.5 c-6.1-1.7-11.4-2.4-19.5-2.4c-6.6,0-8.3,0.1-11.4,1c-12.1,3.3-18.9,10.9-20.1,22.3l-0.3,3.2h31c27.8,0,31,0.1,31.2,0.7 c0.6,1.4,0.3,13.9-0.4,17.8c-3,17.1-12.6,28.1-27.4,31.6C1692,3782.4,1683,3782.8,1679.2,3782.3z M1692.3,3767.5 c5.8-2.2,10.2-7.8,12-15.5c0.5-2.1,0.5-2.8,0.1-3c-0.3-0.1-8.7-1.3-18.6-2.6c-9.9-1.4-18.7-2.5-19.5-2.7l-1.4-0.3v2.8 c0,3.2,1.3,8.3,2.9,11.6C1672.2,3766.6,1683.2,3770.9,1692.3,3767.5z"></path> <path class="st0" d="M1860.2,3782.2c-7.3-0.7-16.3-3.1-21.3-5.7l-2.3-1.2l1.7-5.8c1-3.2,1.8-5.9,1.9-5.9c0-0.1,1.6,0.6,3.4,1.4 c10.3,4.8,24.9,5.6,32.1,2c2.8-1.4,5.6-4.2,6.8-6.8s2.2-7.3,2-9.6l-0.1-1.5l-7.1-0.3c-27.6-1.2-43.3-10-46.9-26.1 c-1-4.5-0.7-11.3,0.7-15.2c3.7-10.7,13.5-17.1,25.9-17.1c10,0,18.5,3.4,24.4,9.6c1.7,1.8,2.6,2.4,3.6,2.5c1.4,0,1.3,0.2,2.3-6.6 l0.5-3.7h8.9h8.9l-0.3,2.1c-0.2,1.1-0.5,15.1-0.7,30.9c-0.4,31.2-0.4,31.2-3.1,38c-1.7,4.3-4,7.7-7.5,11 C1886.9,3781,1875.4,3783.7,1860.2,3782.2z M1883.3,3727.5c0-9.8-0.5-11.5-4.5-15.8c-3.1-3.3-5.8-4.9-10.1-5.9 c-7.3-1.7-13.8,0.9-16.3,6.7c-1.4,3.2-1.4,8.5,0,11.7c3.1,7,12.7,11,26.7,11.2l4.2,0.1V3727.5z"></path> <path class="st0" d="M1941.6,3782.1c-11-1.8-19.6-7.5-23.3-15.5c-3.5-7.4-3.4-15.8,0.3-21.6c3.9-6.2,9.8-10.2,22.1-14.8 c8.9-3.4,12.3-5.6,14.4-9.6c1.4-2.7,1.4-7.3-0.1-10c-3.8-6.7-14.3-8.4-27.8-4.7c-2.2,0.6-5.3,1.7-6.9,2.5c-1.6,0.7-3,1.2-3.1,1.1 c-0.3-0.3-3.8-13.3-3.7-13.5c0.1,0,1.4-0.6,2.8-1.2c11.1-4.6,27.1-5.6,38.4-2.3c13.3,3.9,20.6,12.6,20.6,24.6 c0,9-3.1,15.1-10.5,20.3c-3.5,2.5-6.8,4.1-13.5,6.7c-12.7,4.8-16.5,8-16.5,14.1c0,4.2,2.4,7.6,6.7,9.7c2.6,1.2,3.1,1.3,8.2,1.2 c5.7,0,9.6-0.8,15-3c1.5-0.6,2.8-1.1,3-0.9c0.2,0.2,3.6,12.2,3.6,12.7c0,0.2-1.4,0.8-3.1,1.4 C1960.9,3782.1,1949.1,3783.3,1941.6,3782.1z"></path> <path class="st0" d="M1563.2,3752c0-26.7-0.1-28.7-0.8-31.2c-1.1-3.6-3.1-6.6-6.2-9.4c-4.4-4-8.7-5.5-14.8-5.3 c-8.4,0.4-13.5,5.1-16.4,14.9c-0.7,2.4-0.8,5.6-0.9,30.9c-0.1,15.5-0.3,28.2-0.5,28.2s-4.7-1-10-2.1l-9.7-2.1v-27.3 c0-22.8,0.1-27.8,0.7-31.3c2.3-13.5,8.4-21.6,19.1-25.3c3.4-1.1,4-1.2,10.7-1.2c6.5,0,7.4,0.1,10.7,1.2c6.7,2.2,12.7,6.7,16.3,12 c1.3,2,2,2.6,2.8,2.6c0.6,0,1.1-0.2,1.3-0.3c0.1-0.2,0.4-3.4,0.8-7.1l0.6-6.8h8.7h8.7l-0.3,5c-0.1,2.8-0.3,22.6-0.3,44.1v39.1 h-10.3h-10.2V3752z"></path> <path class="st0" d="M2071.8,3711.4v-1.4h3.1h3.1l0.1-8.6l0.1-8.6l1.7-0.2l1.7-0.1v8.7v8.7h3.1h3.1v1.4v1.3h-8h-8V3711.4z"></path> <path class="st0" d="M2091.9,3702.7v-10h1.5h1.6v6.3c0,3.5,0.1,6.2,0.3,6.1c0.1-0.1,1.2-2.9,2.4-6.2l2.2-5.9h1.4h1.5l2,5.9 c1.1,3.3,2.2,6,2.4,6.2c0.2,0.2,0.3-2.5,0.3-6v-6.3h1.6h1.6v10v10h-2h-1.9l-2.6-7.3c-1.4-3.9-2.8-7.4-2.9-7.6 c-0.2-0.2-1.5,3.1-3,7.3l-2.6,7.6h-1.9h-1.9V3702.7z"></path> </g> </svg> 