<?xml version="1.0" encoding="UTF-8"?> <svg xmlns="http://www.w3.org/2000/svg" xmlns:xlink="http://www.w3.org/1999/xlink" version="1.1" id="Layer_1" x="0px" y="0px" width="80px" height="80px" viewBox="0 0 80 80" style="enable-background:new 0 0 80 80;" xml:space="preserve"> <style type="text/css"> .st0{fill:#DF1F2D;} .st1{fill:#15336F;} .st2{fill:#007C82;} .st3{fill-rule:evenodd;clip-rule:evenodd;fill:#FFFFFF;} .st4{fill:#FFFFFF;} </style> <title>mc_vrt_rgb_pos</title> <g> <path class="st0" d="M24.8,24.4h12.5c1.7,0,2.8,1.4,2.4,3.2l-5.8,24.9c-0.4,1.7-2.2,3.2-3.9,3.2H17.5c-1.7,0-2.8-1.4-2.4-3.2 l5.8-24.9C21.3,25.8,23,24.4,24.8,24.4L24.8,24.4L24.8,24.4z"></path> <path class="st1" d="M36.2,24.4h14.3c1.7,0,1,1.4,0.5,3.2l-5.8,24.9c-0.4,1.7-0.3,3.2-2,3.2H28.9c-1.7,0-2.8-1.4-2.4-3.2l5.8-24.9 C32.7,25.8,34.5,24.4,36.2,24.4L36.2,24.4L36.2,24.4z"></path> <path class="st2" d="M50,24.4h12.5c1.7,0,2.8,1.4,2.4,3.2l-5.8,24.9c-0.4,1.7-2.2,3.2-3.9,3.2H42.7c-1.7,0-2.8-1.4-2.4-3.2 l5.8-24.9C46.5,25.8,48.3,24.4,50,24.4L50,24.4L50,24.4z"></path> <path class="st3" d="M47.9,47.8h1.2l0.3-1.1h-1.2L47.9,47.8L47.9,47.8z M48.9,44.7L48.5,46c0,0,0.4-0.2,0.7-0.3 c0.2-0.1,0.6-0.1,0.6-0.1l0.3-0.9H48.9L48.9,44.7z M49.5,42.8l-0.4,1.3c0,0,0.4-0.2,0.7-0.3c0.2-0.1,0.6-0.1,0.6-0.1l0.3-0.9H49.5 L49.5,42.8z M52.1,42.8l-1.5,5h0.4l-0.3,1h-0.4l-0.1,0.3h-1.4l0.1-0.3h-2.9l0.3-1l0.3,0l1.5-5.1l0.3-1h1.5l-0.2,0.5 c0,0,0.4-0.3,0.8-0.4c0.4-0.1,2.5-0.1,2.5-0.1l-0.3,1H52.1L52.1,42.8z"></path> <path class="st4" d="M52.7,41.8h1.6l0,0.6c0,0.1,0.1,0.1,0.3,0.1h0.3l-0.3,1h-0.9c-0.7,0.1-1-0.3-1-0.6L52.7,41.8L52.7,41.8z"></path> <path class="st4" d="M52.9,46.4h-1.5l0.3-0.9h1.7l0.2-0.8h-1.7l0.3-1h4.7l-0.3,1h-1.6l-0.2,0.8h1.6l-0.3,0.9h-1.7l-0.3,0.4h0.7 l0.2,1.1c0,0.1,0,0.2,0.1,0.2c0,0,0.2,0.1,0.4,0.1h0.2l-0.3,1.1h-0.5c-0.1,0-0.2,0-0.4,0c-0.2,0-0.3-0.1-0.4-0.2 c-0.1,0-0.2-0.2-0.3-0.4l-0.2-1.1l-0.8,1.1c-0.3,0.3-0.6,0.6-1.1,0.6h-1.1l0.3-0.9h0.4c0.1,0,0.2,0,0.3-0.1c0.1,0,0.1-0.1,0.2-0.2 L52.9,46.4L52.9,46.4z"></path> <path class="st4" d="M36.5,44h4l-0.3,0.9h-1.6l-0.2,0.8h1.6l-0.3,1H38L37.6,48c0,0.1,0.4,0.2,0.5,0.2l0.8-0.1l-0.3,1.1h-1.8 c-0.1,0-0.3,0-0.4-0.1c-0.2,0-0.2-0.1-0.3-0.2c-0.1-0.1-0.2-0.2-0.1-0.4l0.5-1.7h-0.9l0.3-1h0.9l0.2-0.8h-0.9L36.5,44L36.5,44z"></path> <path class="st4" d="M39.1,42.3h1.6l-0.3,1h-2.2L38,43.5c-0.1,0.1-0.1,0.1-0.3,0.1c-0.1,0.1-0.4,0.2-0.7,0.2h-0.7l0.3-1h0.2 c0.2,0,0.3,0,0.4-0.1c0.1,0,0.1-0.1,0.2-0.3l0.4-0.7h1.6L39.1,42.3L39.1,42.3z"></path> <path class="st3" d="M42.3,43.9c0,0,0.4-0.4,1.2-0.5c0.2,0,1.3,0,1.3,0l0.2-0.5h-2.3L42.3,43.9L42.3,43.9z M44.4,44.3h-2.3L42,44.8 h2c0.2,0,0.3,0,0.3,0L44.4,44.3L44.4,44.3z M41.5,41.8h1.4l-0.2,0.7c0,0,0.4-0.4,0.7-0.5c0.3-0.1,1-0.2,1-0.2l2.2,0l-0.8,2.6 c-0.1,0.4-0.3,0.7-0.4,0.8c-0.1,0.1-0.2,0.2-0.4,0.4c-0.2,0.1-0.4,0.2-0.5,0.2c-0.2,0-0.4,0-0.7,0h-2.2l-0.6,2 c-0.1,0.2-0.1,0.3,0,0.3c0,0,0.1,0.1,0.2,0.1l1-0.1l-0.3,1.1h-1.1c-0.3,0-0.6,0-0.8,0c-0.2,0-0.3,0-0.5-0.1 c-0.1-0.1-0.3-0.2-0.2-0.3c0-0.1,0.1-0.3,0.1-0.5L41.5,41.8L41.5,41.8z"></path> <path class="st4" d="M45.5,45.9l-0.1,0.6c-0.1,0.2-0.1,0.3-0.2,0.5c-0.2,0.1-0.3,0.3-0.7,0.3l-0.8,0l0,0.7c0,0.2,0,0.2,0.1,0.2 c0,0,0.1,0,0.1,0.1l0.2,0l0.7,0l-0.3,1h-0.8c-0.6,0-1,0-1.2-0.1c-0.1-0.1-0.2-0.2-0.2-0.4l0.1-2.7h1.3l0,0.6H44c0.1,0,0.2,0,0.2,0 c0,0,0.1-0.1,0.1-0.1l0.1-0.4H45.5L45.5,45.9z"></path> <path class="st4" d="M26.3,32.3c0,0.2-0.9,4.2-0.9,4.2c-0.2,0.8-0.3,1.4-0.8,1.8c-0.3,0.2-0.6,0.3-0.9,0.3c-0.6,0-0.9-0.3-1-0.8 l0-0.2c0,0,0.2-1.1,0.2-1.1c0,0,0.9-3.6,1.1-4.1c0,0,0,0,0-0.1c-1.8,0-2.1,0-2.1,0c0,0-0.1,0.3-0.1,0.3s-0.9,4.1-0.9,4.1L20.8,37 l-0.2,1.1c0,0.3,0.1,0.6,0.2,0.8c0.4,0.7,1.6,0.9,2.3,0.9c0.9,0,1.7-0.2,2.3-0.5c1-0.6,1.2-1.5,1.4-2.3l0.1-0.4 c0,0,0.9-3.8,1.1-4.3c0,0,0,0,0-0.1C26.8,32.4,26.4,32.4,26.3,32.3L26.3,32.3z"></path> <path class="st4" d="M31.4,39.8c-0.6,0-0.8,0-1.6,0l0,0c0.1-0.3,0.1-0.6,0.2-0.8l0.1-0.4c0.1-0.6,0.3-1.3,0.3-1.5 c0-0.1,0.1-0.4-0.3-0.4c-0.2,0-0.3,0.1-0.5,0.1c-0.1,0.3-0.3,1.2-0.4,1.6c-0.2,0.9-0.2,1-0.3,1.4L29,39.8c-0.6,0-0.9,0-1.6,0l0-0.1 c0.1-0.5,0.2-1,0.4-1.5c0.3-1.4,0.4-1.9,0.5-2.6l0.1,0c0.7-0.1,0.9-0.1,1.7-0.3l0.1,0.1l-0.1,0.4c0.1-0.1,0.3-0.2,0.4-0.2 c0.4-0.2,0.8-0.2,1-0.2c0.3,0,0.7,0.1,0.9,0.5c0.2,0.4,0.1,0.8-0.1,1.7L31.9,38C31.7,38.9,31.6,39.1,31.4,39.8L31.4,39.8L31.4,39.8 z"></path> <path class="st4" d="M34,39.8c-0.4,0-0.6,0-0.9,0c-0.2,0-0.5,0-0.8,0l0,0l0,0c0.1-0.4,0.1-0.5,0.2-0.6c0-0.1,0.1-0.3,0.2-0.6 c0.1-0.5,0.2-0.8,0.2-1.1c0-0.3,0.1-0.5,0.1-0.8l0,0l0,0c0.4-0.1,0.6-0.1,0.9-0.1c0.2,0,0.5-0.1,0.9-0.2l0,0l0,0 c-0.1,0.3-0.1,0.6-0.2,0.9c-0.1,0.3-0.1,0.6-0.2,0.9c-0.1,0.6-0.2,0.9-0.2,1C34.1,39.4,34.1,39.5,34,39.8L34,39.8L34,39.8L34,39.8z "></path> <path class="st4" d="M38,37.6c0,0.2-0.2,0.8-0.4,1c-0.1,0.2-0.3,0.3-0.5,0.3c0,0-0.4,0-0.4-0.5c0-0.2,0-0.5,0.1-0.7 c0.2-0.7,0.4-1.3,0.9-1.3C38.1,36.4,38.2,36.9,38,37.6L38,37.6z M39.6,37.7c0.2-1,0.1-1.4-0.2-1.7c-0.3-0.4-0.9-0.6-1.5-0.6 c-0.4,0-1.2,0-1.9,0.7c-0.5,0.4-0.7,1-0.8,1.6c-0.1,0.6-0.3,1.7,0.7,2c0.3,0.1,0.7,0.2,1,0.2c0.7,0,1.5-0.2,2-0.8 C39.4,38.7,39.6,38,39.6,37.7L39.6,37.7z"></path> <path class="st4" d="M55,39.9c-0.8,0-1,0-1.7,0l0-0.1c0.2-0.7,0.4-1.4,0.5-2.2c0.2-0.9,0.3-1.3,0.3-1.9l0.1,0 c0.8-0.1,1-0.1,1.7-0.3l0,0.1c-0.1,0.6-0.3,1.2-0.4,1.8C55.3,38.6,55.2,39.2,55,39.9L55,39.9L55,39.9z"></path> <path class="st4" d="M53.8,37.7c0,0.2-0.2,0.8-0.4,1C53.3,38.9,53,39,52.9,39c0,0-0.4,0-0.4-0.5c0-0.2,0-0.5,0.1-0.7 c0.2-0.7,0.4-1.3,0.9-1.3C53.8,36.5,54,37,53.8,37.7L53.8,37.7z M55.3,37.8c0.2-1-0.7-0.1-0.8-0.4c-0.2-0.5-0.1-1.5-1-1.8 c-0.3-0.1-1.1,0-1.8,0.7c-0.5,0.4-0.7,1-0.8,1.6c-0.1,0.6-0.3,1.6,0.7,2c0.3,0.1,0.6,0.2,0.9,0.2c1,0,1.7-1.5,2.3-2.1 C55.2,37.4,55.3,38,55.3,37.8L55.3,37.8z"></path> <path class="st4" d="M43.9,39.8c-0.6,0-0.8,0-1.6,0l0,0c0.1-0.3,0.1-0.6,0.2-0.8l0.1-0.4c0.1-0.6,0.3-1.3,0.3-1.5 c0-0.1,0.1-0.4-0.3-0.4c-0.2,0-0.3,0.1-0.5,0.1c-0.1,0.3-0.3,1.2-0.4,1.6c-0.2,0.9-0.2,1-0.3,1.4l-0.1,0.1c-0.6,0-0.9,0-1.6,0 l0-0.1c0.1-0.5,0.2-1,0.4-1.5c0.3-1.4,0.4-1.9,0.5-2.6l0.1,0c0.7-0.1,0.9-0.1,1.7-0.3l0.1,0.1l-0.1,0.4c0.1-0.1,0.3-0.2,0.4-0.2 c0.4-0.2,0.8-0.2,1-0.2c0.3,0,0.7,0.1,0.9,0.5c0.1,0.4,0,0.8-0.1,1.7L44.3,38C44.1,38.9,44.1,39.1,43.9,39.8L43.9,39.8L43.9,39.8z"></path> <path class="st4" d="M49.4,32.3c0,0-0.5,0-0.5,0c-1.4,0-1.9,0-2.1,0c0,0.1-0.1,0.3-0.1,0.3c0,0-0.5,2.3-0.5,2.3c0,0-1.2,4.8-1.2,5 c1.2,0,1.7,0,1.9,0c0-0.2,0.3-1.6,0.3-1.6c0,0,0.2-1,0.3-1c0,0,0.1-0.1,0.1-0.1h0.1c1,0,2.2,0,3.1-0.7c0.6-0.5,1-1.1,1.2-1.9 c0-0.2,0.1-0.4,0.1-0.7c0-0.3-0.1-0.6-0.2-0.9C51.3,32.3,50.4,32.3,49.4,32.3L49.4,32.3z M50,34.7c-0.1,0.5-0.4,0.9-0.9,1.1 C48.8,36,48.4,36,48,36h-0.3l0-0.1c0,0,0.5-2.2,0.5-2.2l0-0.1l0-0.1l0.2,0c0,0,1.1,0.1,1.1,0.1C50,33.7,50.2,34.1,50,34.7L50,34.7z "></path> <path class="st4" d="M61.2,35.5L61.2,35.5c-0.8,0.1-1,0.1-1.7,0.2l-0.1,0c0,0,0,0,0,0l0,0c-0.5,1.2-0.5,1-0.9,1.9c0,0,0-0.1,0-0.1 l-0.1-2.1l-0.1-0.1c-0.8,0.2-0.8,0.2-1.6,0.3l-0.1,0c0,0,0,0.1,0,0.1l0,0c0.1,0.5,0.1,0.4,0.2,1.1c0,0.4,0.1,0.7,0.1,1.1 c0.1,0.6,0.1,0.9,0.2,1.8c-0.5,0.8-0.6,1.2-1.1,1.9l0,0.1c0.7,0,0.9,0,1.4,0l0.1-0.1C58.1,40.8,61.2,35.5,61.2,35.5L61.2,35.5z"></path> <path class="st4" d="M34.7,36c0.4-0.3,0.5-0.7,0.1-0.9c-0.4-0.2-1-0.1-1.4,0.1c-0.4,0.3-0.5,0.7-0.1,0.9 C33.6,36.3,34.3,36.3,34.7,36L34.7,36z"></path> <path class="st4" d="M57.6,41.8l-0.6,1c-0.2,0.4-0.6,0.6-1.1,0.6l-1,0l0.3-0.9h0.2c0.1,0,0.2,0,0.2,0c0,0,0.1-0.1,0.1-0.1l0.4-0.6 H57.6L57.6,41.8z"></path> </g> </svg> 