<?xml version="1.0" encoding="UTF-8"?> <svg xmlns="http://www.w3.org/2000/svg" xmlns:xlink="http://www.w3.org/1999/xlink" version="1.1" id="Layer_1" x="0px" y="0px" viewBox="0 0 80 80" style="enable-background:new 0 0 80 80;" xml:space="preserve"> <style type="text/css"> .st0{fill:#4B4A4A;} .st1{fill:#144A95;} .st2{fill:#FDD500;} </style> <g id="XMLID_19_"> <g id="XMLID_16_"> <path id="XMLID_259_" class="st0" d="M40.9,60.1c-2,1.3-3.9,2.6-5.9,3.7c-0.9,0.5-1.9,0.3-2.6-0.4c-0.5-0.5-0.7-1.1-0.5-1.8 c0.2-0.6,0.4-1.3,0.5-1.9c0.2-1-0.1-1.8-0.6-2.6c-0.1-0.2-0.2-0.3-0.3-0.5c-0.8-1.5-0.4-2.9,1.2-3.4c2.5-0.8,5-0.5,7.2,1 c0.3,0.2,0.5,0.4,0.8,0.6c0,0,0,0,0.2,0c0-0.4,0-0.9,0-1.3c0-0.6,0.3-0.9,0.8-0.9c2.2,0,4.4,0,6.5,0c0.5,0,0.8,0.3,0.8,0.8 c0,3.9,0,7.7,0,11.6c0,0.6-0.2,0.8-0.8,0.8c-2.3,0-2.1,0.2-2.1-2c0-2.5,0-4.9,0-7.4c0-0.9,0-0.9-1.2-0.9c-0.7,0-1,0.1-1,0.9 c0,2.8,0,5.5,0,8.3c0,0.9-0.2,1-1,1c-2.1,0-2,0.2-2-2C40.9,62.4,40.9,61.2,40.9,60.1z M34.9,60.5c0.2,0,0.4,0,0.5,0 c1.5-0.8,2.9-1.8,4-3.1c0.4-0.4,0.1-0.7-0.3-0.8c-1.2-0.7-2.6-1-4-1c-0.7,0-0.9,0.3-0.4,0.9c0.6,0.8,0.8,1.7,0.5,2.7 C35.1,59.6,35,60,34.9,60.5z"></path> <path id="XMLID_258_" class="st0" d="M22.6,55.4c-1.2,0-2.4,0-3.6,0c-0.7,0-1-0.2-1-0.9c0-2,0-2,2-2c1.6,0,3.1,0,4.7,0 c0.5,0,1,0,1-0.7c0-0.6-0.5-0.9-1.1-0.8c-1.1,0.1-2.2,0.3-3.4,0.3c-0.7,0-1.4-0.2-2-0.4c-1-0.4-1.2-2.1-0.4-2.8 c0.2-0.2,0.7-0.2,0.8-0.1c1.5,1.1,3.1,0.7,4.7,0.4c0.5-0.1,1.1-0.1,1.6-0.1c1.8,0.3,2.7,1.8,2.2,3.7c0,0.1-0.1,0.2-0.1,0.5 c0.5,0,0.9,0,1.3,0c0.6,0,0.9,0.2,0.9,0.9c0,2.2,0.2,2-1.9,2c-0.8,0-1.5,0-2.3,0c-0.4,0-0.6,0.1-0.7,0.6c-0.1,1.9,0.2,2.2,2.1,1.8 c0.5-0.1,1-0.3,1.6-0.4c0.6-0.1,1.2,0.2,1.2,0.9c0,1.2,0.1,2.4-0.1,3.5c-0.4,2.1-2,3.2-3.9,3.8c-1.5,0.5-3.1,0.4-4.6,0 c-2.2-0.6-3.7-2.7-3.8-5.3c0-1,0.1-2,0.2-3c0.1-0.6,0.4-0.9,1-0.8c0.2,0,0.4,0,0.5,0c1,0,1.1,0.1,1.2,1.1c0.1,1.1,0.1,2.1,0.3,3.2 c0.2,1.2,1,1.9,2.2,2c0.9,0,1.8,0,2.6-0.2c0.4-0.1,0.8-0.4,1.1-0.7c0.3-0.3,0.3-0.8,0.5-1.2c-0.4,0-0.7-0.1-1.1,0 c-0.6,0.1-1.3,0.2-1.9,0.2c-1.3,0-1.8-0.5-1.9-1.9c0-1.1,0-2.2,0-3.2C22.7,55.6,22.7,55.5,22.6,55.4z"></path> <path id="XMLID_245_" class="st0" d="M62,58.6c0,1.6,0,3.3,0,4.9c0,1.6-1.2,2.5-2.7,2.1c-2.3-0.7-4.6-0.8-6.9-0.6 c-1.7,0.1-2.2-0.5-2.2-2.1c0-0.1,0-0.1,0-0.2c0-2.3,0-2.3,2.1-3.1c0.4-0.2,1-0.6,1-0.8c0-0.7-0.7-0.7-1.2-0.7 c-1.5-0.2-1.9-0.6-1.9-2.1c0-0.8,0-1.7,0-2.5c0-0.6,0.3-0.9,0.9-0.9c3.3,0,6.7,0,10,0c0.7,0,0.9,0.3,0.9,0.9 C62,55.1,62,56.9,62,58.6z M56.1,55.4c-0.6,0-1.2,0-1.8,0c-0.2,0-0.4,0.2-0.6,0.2c0.1,0.2,0.2,0.5,0.3,0.6 c0.4,0.2,0.8,0.3,1.2,0.5c1.6,0.7,1.9,2.4,0.5,3.5c-0.4,0.3-0.9,0.5-1.4,0.8c-0.2,0.2-0.4,0.4-0.6,0.7c0.3,0.1,0.5,0.3,0.8,0.3 c1.3,0.1,2.5,0.2,3.8,0.3c0.5,0,0.7-0.2,0.7-0.7c0-0.5-0.1-1-0.1-1.5c0-1.2-0.1-2.5-0.1-3.7c0-0.7-0.3-1.1-1.1-1.1 C57.3,55.4,56.7,55.4,56.1,55.4z"></path> <path id="XMLID_243_" class="st0" d="M55.8,70c-1.1,0-2-0.9-2-2c0-1.1,0.9-2,2-2c1.1,0,2,0.9,2,2C57.8,69.1,56.9,70,55.8,70z"></path> </g> <g id="XMLID_14_"> <path id="XMLID_29_" class="st1" d="M57.5,38.5C57.5,38.6,57.4,38.6,57.5,38.5c-1.8,2.3-4.1,4.2-6.8,5.6c-2.8,1.4-6.2,1.9-9.3,1.9 c1.6-0.7,2.7-2.3,2.7-4.1c0-2.3-1.7-4.1-3.8-4.4c5.8-0.2,10.5-4.4,10.8-9.7c0-0.1,0-0.3,0-0.4c0-0.3,0-0.6,0-0.8c0-0.5,0-1,0-1.5 c0.1-1.1,1.6-1.9,1.6-1.9s4.8,0,6.1,0c1.3,0.2,1.8,1.6,1.8,1.6C61.2,32.6,57.7,38.2,57.5,38.5z"></path> <ellipse id="XMLID_1_" transform="matrix(0.2459 -0.9693 0.9693 0.2459 3.498 34.7838)" class="st2" cx="24.1" cy="15.1" rx="5.1" ry="5.1"></ellipse> <ellipse id="XMLID_15_" transform="matrix(0.2331 -0.9725 0.9725 0.2331 27.7652 65.4942)" class="st1" cx="55.4" cy="15.1" rx="5.1" ry="5.1"></ellipse> <path id="XMLID_61_" class="st2" d="M44.1,42c0,1.8-1.1,3.4-2.7,4.1c-1.3,0-2.6,0-3.7-0.1c-4.2-0.3-7.4-1.2-7.6-1.2c0,0,0,0,0,0 c-4.3-2-7.8-5.2-9.8-9.1h0c0,0,0-0.1-0.1-0.1C18.7,32.5,19,25,19,25c0-1.2,1.5-1.7,1.5-1.7h6.1c1.2,0.1,1.8,1.5,1.8,1.5l0.3,1.9 c-0.2,0.9,0,2,0.3,3c0,0,0,0,0,0c0.2,0.7,0.5,1.5,0.8,2.1c0,0,0,0,0,0c0,0,0,0,0,0c0,0,0,0,0,0c1.7,3.2,5.3,5.5,9.4,5.7 c0.2,0,0.5,0,0.7,0c0.2,0,0.3,0,0.5,0C42.4,37.8,44.1,39.7,44.1,42z"></path> </g> </g> </svg> 