<?xml version="1.0" encoding="UTF-8"?> <svg xmlns="http://www.w3.org/2000/svg" xmlns:xlink="http://www.w3.org/1999/xlink" version="1.1" id="Layer_1" x="0px" y="0px" width="80px" height="80px" viewBox="0 0 80 80" style="enable-background:new 0 0 80 80;" xml:space="preserve"> <style type="text/css"> .st0{fill:#1B216D;} </style> <g> <path class="st0" d="M40.8,37.1c0,2.2,2,3.4,3.6,4.2s2,1.2,2,1.9c0,1.1-1.2,1.6-2.3,1.6c-2,0-3.3-0.6-4.2-0.9l-0.8,3.4 c0.9,0.5,2.7,0.8,4.5,0.8c4.2,0,7-2,7-5.3c0-4.1-5.6-4.4-5.6-6.2c0-0.6,0.5-1.1,1.7-1.2c0.6,0,2.2-0.2,3.9,0.6l0.8-3.3 c-0.9-0.3-2.2-0.6-3.8-0.6C43.8,32,40.9,34.1,40.8,37.1 M58.3,32.3c-0.8,0-1.4,0.5-1.7,1.1l-6.1,14.5h4.2l0.8-2.3h5.2l0.5,2.3H65 l-3.3-15.6H58.3 M58.9,36.5l1.2,5.9h-3.3L58.9,36.5 M35.8,32.3l-3.3,15.6h4.1l3.3-15.6H35.8 M29.7,32.3l-4.2,10.6l-1.6-9.1 c-0.3-0.9-1.1-1.6-1.9-1.6h-6.9L15,32.7c1.4,0.3,3,0.8,4.1,1.4c0.5,0.3,0.6,0.5,0.9,1.2l3.3,12.5h4.2l6.6-15.6H29.7"></path> </g> </svg> 