<?xml version="1.0" encoding="UTF-8"?> <svg xmlns="http://www.w3.org/2000/svg" xmlns:xlink="http://www.w3.org/1999/xlink" version="1.1" id="Layer_1" x="0px" y="0px" width="80px" height="80px" viewBox="0 0 80 80" style="enable-background:new 0 0 80 80;" xml:space="preserve"> <style type="text/css"> .st0{fill:#FFC10E;} .st1{opacity:0.6;fill:url(#XMLID_3_);} .st2{fill:#F89C27;} .st3{opacity:0.6;fill:url(#XMLID_4_);} .st4{fill:#F58528;} .st5{fill:#F16A22;} .st6{fill:#F47F28;} .st7{fill:#F05A22;} .st8{fill:#77787B;} </style> <g id="XMLID_1_"> <g id="XMLID_346_"> <path id="XMLID_393_" class="st0" d="M14,45.3c-3.6-1.3-5.4-3.7-6.2-5.7c-0.9-0.1-1.5-0.1-1.7-0.1c2.1,6.2,8.3,6,8.3,6L14,45.3 L14,45.3z"></path> <path id="XMLID_392_" class="st0" d="M20.9,39.6c-0.9,2.1-2.7,4.5-6.5,5.9c0,0,6.2,0.2,8.3-6C22.4,39.5,21.7,39.4,20.9,39.6z"></path> <path id="XMLID_391_" class="st0" d="M12.2,38.9c0-1.2,0.3-2.3,0.6-3.1c-1.1-1.5-2.3-2.2-2.3-2.2s-0.5,1.3-0.6,3.2 C10.7,37.2,11.5,37.9,12.2,38.9z"></path> <path id="XMLID_390_" class="st0" d="M18.8,36.7c-0.1-1.8-0.6-3.1-0.6-3.1s-1.2,0.7-2.3,2.2c0.3,0.9,0.6,1.9,0.6,3.1 C17.2,37.9,18,37.2,18.8,36.7z"></path> <path id="XMLID_389_" class="st0" d="M18.2,40.4c0.9-0.5,1.9-0.7,2.6-0.8c0.9-2.3,0.8-4.3,0.8-4.3s-1.3,0.3-2.9,1.4 C18.8,37.7,18.7,39,18.2,40.4z"></path> <path id="XMLID_372_" class="st0" d="M9.9,36.7C8.3,35.6,7,35.3,7,35.3s-0.1,2,0.8,4.2c0.8,0.1,1.7,0.3,2.7,0.8 C10,39,9.8,37.8,9.9,36.7z"></path> <radialGradient id="XMLID_3_" cx="14.4178" cy="43.4731" r="12.3237" gradientUnits="userSpaceOnUse"> <stop offset="0" style="stop-color:#E83E2E"></stop> <stop offset="0.2341" style="stop-color:#E9482F"></stop> <stop offset="0.6836" style="stop-color:#FDC60B"></stop> </radialGradient> <path id="XMLID_371_" class="st1" d="M10.4,40.4c-0.9-0.5-1.9-0.7-2.7-0.8c0.9,2.1,2.6,4.4,6.2,5.7h0l0.4,0.1 C12.2,43.8,11,42.1,10.4,40.4z"></path> <path id="XMLID_370_" class="st2" d="M10.4,40.4c-0.9-0.5-1.9-0.7-2.7-0.8c0.9,2.1,2.6,4.4,6.2,5.7h0l0.4,0.1 C12.2,43.8,11,42.1,10.4,40.4z"></path> <radialGradient id="XMLID_4_" cx="14.4177" cy="43.473" r="12.3291" gradientUnits="userSpaceOnUse"> <stop offset="0" style="stop-color:#E83E2E"></stop> <stop offset="0.2341" style="stop-color:#E9482F"></stop> <stop offset="0.6836" style="stop-color:#FDC60B"></stop> </radialGradient> <path id="XMLID_369_" class="st3" d="M20.9,39.6c-0.8,0.1-1.7,0.3-2.6,0.8c-0.6,1.7-1.8,3.5-3.9,5.1C18.1,44.1,20,41.7,20.9,39.6z "></path> <path id="XMLID_368_" class="st2" d="M20.9,39.6c-0.8,0.1-1.7,0.3-2.6,0.8c-0.6,1.7-1.8,3.5-3.9,5.1C18.1,44.1,20,41.7,20.9,39.6z "></path> <path id="XMLID_367_" class="st4" d="M10.4,40.4c0.8,0.4,1.5,0.9,2.2,1.7c-0.4-1.1-0.5-2.2-0.4-3.2c-0.7-0.9-1.6-1.7-2.3-2.2 C9.8,37.8,10,39,10.4,40.4z"></path> <path id="XMLID_366_" class="st5" d="M10.4,40.4c0.6,1.7,1.8,3.5,3.9,5.1c-0.8-1.2-1.3-2.3-1.7-3.4C12,41.3,11.2,40.7,10.4,40.4z"></path> <path id="XMLID_365_" class="st4" d="M16.5,38.8c0,1-0.1,2.1-0.4,3.2c0.7-0.8,1.4-1.3,2.2-1.7c0.5-1.3,0.6-2.6,0.6-3.7 C18,37.2,17.2,37.9,16.5,38.8z"></path> <path id="XMLID_364_" class="st5" d="M18.2,40.4c-0.8,0.4-1.5,0.9-2.2,1.7c-0.3,1.1-0.9,2.2-1.7,3.4 C16.5,43.8,17.6,42.1,18.2,40.4z"></path> <path id="XMLID_363_" class="st0" d="M15.9,35.8c-0.6-1.8-1.5-2.8-1.5-2.8s-0.9,1.1-1.5,2.8c0.6,0.7,1.1,1.7,1.5,2.8 C14.7,37.4,15.3,36.5,15.9,35.8z"></path> <path id="XMLID_362_" class="st6" d="M14.9,41.8c0.4-1.2,0.9-2.2,1.6-3c0-1.2-0.3-2.2-0.6-3.1c-0.6,0.7-1.1,1.7-1.5,2.8 C14.7,39.5,14.9,40.6,14.9,41.8z"></path> <path id="XMLID_172_" class="st7" d="M16.5,38.8c-0.6,0.8-1.2,1.8-1.6,3c0-1.2-0.2-2.3-0.6-3.3c-0.3,1-0.6,2.1-0.6,3.3 c-0.4-1.2-0.9-2.2-1.6-3c0,1,0.1,2,0.4,3.2c0.3,1.1,0.9,2.2,1.7,3.4c0.8-1.2,1.4-2.3,1.7-3.4C16.4,40.9,16.5,39.8,16.5,38.8z"></path> <path id="XMLID_357_" class="st6" d="M13.8,41.9c0-1.3,0.2-2.4,0.6-3.3c-0.4-1.1-1-2.1-1.5-2.8c-0.3,0.9-0.6,1.9-0.6,3.1 C12.8,39.7,13.4,40.7,13.8,41.9z"></path> </g> <g id="XMLID_132_"> <path id="XMLID_354_" class="st8" d="M31.8,39.2c0,3.8-1.1,5-4,5c-1.4,0-2.6-0.1-3.7-0.1v-9.8c1.1-0.1,2.2-0.1,3.7-0.1 C30.7,34.2,31.8,35.3,31.8,39.2z M29.9,39.2c0-2.7-0.5-3.5-2.1-3.5c-0.7,0-1.3,0-1.9,0v7c0.6,0,1.2,0,1.9,0 C29.4,42.7,29.9,41.9,29.9,39.2z"></path> <path id="XMLID_352_" class="st8" d="M43.5,39v5.2h-1.7v-4.7c0-0.7-0.2-1-0.9-1c-0.6,0-1,0.2-1.9,0.8v4.9h-1.7v-4.7 c0-0.8-0.3-1-0.9-1c-0.5,0-0.9,0.2-1.9,0.8v4.9H33v-6.9h1.4l0.1,1c0.9-0.8,1.7-1.2,2.7-1.2c0.9,0,1.5,0.4,1.8,1.2 c0.9-0.8,1.7-1.2,2.6-1.2C42.8,37,43.5,37.7,43.5,39z"></path> <path id="XMLID_349_" class="st8" d="M51.4,40.7c0,2.7-0.9,3.7-3.4,3.7c-2.5,0-3.4-1-3.4-3.7c0-2.7,0.9-3.7,3.4-3.7 C50.4,37,51.4,38.1,51.4,40.7z M46.3,40.7c0,1.8,0.4,2.3,1.6,2.3c1.2,0,1.6-0.5,1.6-2.3c0-1.8-0.4-2.3-1.6-2.3 C46.7,38.4,46.3,38.9,46.3,40.7z"></path> <path id="XMLID_347_" class="st8" d="M58.9,39v5.2h-1.7v-4.7c0-0.8-0.2-1-0.7-1c-0.7,0-1.3,0.3-2.3,0.9l0,4.8h-1.7v-6.9h1.4l0.1,1 c1-0.8,2-1.2,3-1.2C58.2,37,58.9,37.7,58.9,39z"></path> <path id="XMLID_373_" class="st8" d="M66.1,42.8l0.2,1.1c-0.7,0.4-2,0.5-2.9,0.5c-2.5,0-3.5-1-3.5-3.7c0-2.8,1-3.7,3.4-3.7 c2.3,0,3.2,0.8,3.2,2.4c0,1.2-0.6,2-1.9,2h-2.8c0.1,1.3,0.7,1.5,1.9,1.5C64.2,43,65.2,42.9,66.1,42.8z M61.7,40.2h2.4 c0.6,0,0.6-0.4,0.6-0.8c0-0.7-0.3-1-1.4-1C62.1,38.4,61.7,38.8,61.7,40.2z"></path> <path id="XMLID_376_" class="st8" d="M71.4,44.4c-0.5,1.3-1.5,2.8-3.5,2.7L67.7,46c1.1-0.3,1.7-0.8,2-1.6l0.1-0.2h-0.3 c-0.3,0-0.5-0.2-0.6-0.4l-2.4-6.5h1.8l1.5,4.8c0.1,0.3,0.2,0.6,0.2,0.9h0.2c0.1-0.3,0.2-0.7,0.3-0.9l1.5-4.8h1.8L71.4,44.4z"></path> </g> </g> </svg> 