<?xml version="1.0" encoding="UTF-8"?> <svg xmlns="http://www.w3.org/2000/svg" xmlns:xlink="http://www.w3.org/1999/xlink" version="1.1" id="Layer_1" x="0px" y="0px" width="80px" height="80px" viewBox="0 0 80 80" style="enable-background:new 0 0 80 80;" xml:space="preserve"> <style type="text/css"> .st0{fill:#231F20;} .st1{fill:#FF5F00;} .st2{fill:#EB001B;} .st3{fill:#F79E1B;} </style> <title>mc_vrt_rgb_pos</title> <g id="Layer_1-2"> <path class="st0" d="M24.1,59.2v-2.6c0.1-0.8-0.6-1.6-1.4-1.6c-0.1,0-0.1,0-0.2,0c-0.6,0-1.1,0.2-1.4,0.7c-0.3-0.5-0.8-0.8-1.4-0.7 c-0.5,0-0.9,0.2-1.2,0.6v-0.5h-0.9v4.1h0.9V57c-0.1-0.5,0.3-1,0.8-1.1c0.1,0,0.1,0,0.2,0c0.6,0,0.9,0.4,0.9,1.1v2.3h0.9V57 c-0.1-0.5,0.3-1,0.8-1.1c0.1,0,0.1,0,0.2,0c0.6,0,0.9,0.4,0.9,1.1v2.3L24.1,59.2z M37.4,55.1H36v-1.2h-0.9v1.2h-0.8v0.8h0.8v1.9 c0,1,0.4,1.5,1.4,1.5c0.4,0,0.8-0.1,1.1-0.3l-0.3-0.8c-0.2,0.1-0.5,0.2-0.8,0.2c-0.4,0-0.6-0.3-0.6-0.7v-1.9h1.5L37.4,55.1z M45,55 c-0.4,0-0.9,0.2-1.1,0.6v-0.5h-0.9v4.1H44v-2.3c0-0.7,0.3-1.1,0.9-1.1c0.2,0,0.4,0,0.6,0.1l0.3-0.9C45.5,55,45.2,55,45,55L45,55z M33.5,55.5C33,55.2,32.4,55,31.9,55c-1,0-1.7,0.5-1.7,1.3c0,0.7,0.5,1.1,1.4,1.2l0.4,0.1c0.5,0.1,0.7,0.2,0.7,0.4 c0,0.3-0.3,0.5-0.9,0.5c-0.5,0-1-0.1-1.4-0.4L30,58.8c0.5,0.4,1.1,0.5,1.8,0.5c1.2,0,1.9-0.6,1.9-1.3s-0.5-1.1-1.4-1.2l-0.4-0.1 c-0.4-0.1-0.7-0.1-0.7-0.4c0-0.3,0.3-0.5,0.8-0.5c0.5,0,0.9,0.1,1.3,0.4L33.5,55.5z M57.4,55c-0.4,0-0.9,0.2-1.1,0.6v-0.5h-0.9v4.1 h0.9v-2.3c0-0.7,0.3-1.1,0.9-1.1c0.2,0,0.4,0,0.6,0.1l0.3-0.9C57.9,55,57.6,55,57.4,55L57.4,55z M45.9,57.2c0,1.1,0.9,2.1,2,2.1 c0.1,0,0.1,0,0.2,0c0.5,0,1.1-0.1,1.5-0.5l-0.4-0.7c-0.3,0.2-0.7,0.4-1.1,0.4c-0.7-0.1-1.3-0.7-1.2-1.4c0.1-0.6,0.6-1.2,1.2-1.2 c0.4,0,0.8,0.1,1.1,0.4l0.4-0.7c-0.4-0.3-0.9-0.5-1.5-0.5c-1.1-0.1-2.1,0.8-2.2,2C45.9,57,45.9,57.1,45.9,57.2L45.9,57.2z M54.3,57.2v-2h-0.9v0.5c-0.3-0.4-0.8-0.6-1.3-0.6c-1.2,0-2.1,1-2.1,2.1c0,1.2,1,2.1,2.1,2.1c0.5,0,1-0.2,1.3-0.6v0.5h0.9V57.2z M51,57.2c0-0.7,0.6-1.2,1.3-1.2c0.7,0,1.2,0.6,1.2,1.3c0,0.7-0.6,1.2-1.2,1.2C51.5,58.5,51,57.9,51,57.2C51,57.2,51,57.2,51,57.2z M40.2,55c-1.2,0-2.1,1-2.1,2.2c0,1.2,1,2.1,2.2,2.1l0,0c0.6,0,1.2-0.2,1.7-0.6l-0.4-0.7c-0.3,0.3-0.8,0.4-1.2,0.4 c-0.6,0.1-1.2-0.4-1.2-1h3c0-0.1,0-0.2,0-0.3C42.2,55.9,41.4,55,40.2,55L40.2,55z M40.2,55.8c0.6,0,1,0.4,1,1c0,0,0,0,0,0h-2.1 C39.1,56.2,39.6,55.8,40.2,55.8L40.2,55.8z M62.6,57.2v-3.7h-0.9v2.1c-0.3-0.4-0.8-0.6-1.3-0.6c-1.2,0-2.1,1-2.1,2.1 c0,1.2,1,2.1,2.1,2.1c0.5,0,1-0.2,1.3-0.6v0.5h0.9V57.2z M64.1,58.6c0.1,0,0.1,0,0.2,0c0,0,0.1,0,0.1,0.1c0,0,0.1,0.1,0.1,0.1 c0,0.1,0,0.2,0,0.3c0,0-0.1,0.1-0.1,0.1c0,0-0.1,0.1-0.1,0.1c-0.1,0-0.1,0-0.2,0c-0.2,0-0.3-0.1-0.4-0.2c0-0.1,0-0.2,0-0.3 c0,0,0.1-0.1,0.1-0.1c0,0,0.1-0.1,0.1-0.1C64,58.6,64,58.6,64.1,58.6L64.1,58.6z M64.1,59.4c0,0,0.1,0,0.1,0c0,0,0.1,0,0.1-0.1 c0.1-0.1,0.1-0.3,0-0.4c0,0-0.1-0.1-0.1-0.1c0,0-0.1,0-0.1,0c0,0-0.1,0-0.1,0c0,0-0.1,0-0.1,0.1c-0.1,0.1-0.1,0.3,0,0.4 c0,0,0.1,0.1,0.1,0.1C64,59.4,64,59.4,64.1,59.4L64.1,59.4z M64.1,58.8c0,0,0.1,0,0.1,0c0,0,0,0.1,0,0.1c0,0,0,0.1,0,0.1 c0,0-0.1,0-0.1,0l0.1,0.1h-0.1L64,59.1h0v0.1h-0.1v-0.4L64.1,58.8z M64,58.9V59h0.1c0,0,0,0,0.1,0c0,0,0,0,0,0c0,0,0,0,0,0 C64.1,58.9,64.1,58.9,64,58.9L64,58.9z M59.3,57.2c0-0.7,0.6-1.2,1.3-1.2s1.2,0.6,1.2,1.3c0,0.7-0.6,1.2-1.2,1.2 C59.8,58.5,59.3,58,59.3,57.2C59.3,57.2,59.3,57.2,59.3,57.2z M29.1,57.2v-2.1h-0.9v0.5C27.9,55.2,27.5,55,27,55 c-1.2,0-2.1,1-2.1,2.1c0,1.2,1,2.1,2.1,2.1c0.5,0,1-0.2,1.3-0.6v0.5h0.9L29.1,57.2z M25.8,57.2c0-0.7,0.6-1.2,1.3-1.2 c0.7,0,1.2,0.6,1.2,1.3c0,0.7-0.6,1.2-1.2,1.2c-0.7,0-1.2-0.5-1.3-1.2C25.8,57.2,25.8,57.2,25.8,57.2L25.8,57.2z"></path> <g id="_Group_"> <rect x="33.2" y="23.9" class="st1" width="13.5" height="24.3"></rect> <path id="_Path_" class="st2" d="M34.1,36c0-4.7,2.2-9.2,5.9-12.2c-6.7-5.3-16.4-4.1-21.7,2.6s-4.1,16.4,2.6,21.7 c5.6,4.4,13.5,4.4,19.1,0C36.3,45.2,34.1,40.8,34.1,36z"></path> <path class="st3" d="M65,36c0,8.5-6.9,15.5-15.5,15.5c-3.5,0-6.8-1.2-9.5-3.3c6.7-5.3,7.9-15,2.6-21.7c-0.8-1-1.6-1.8-2.6-2.6 c6.7-5.3,16.4-4.1,21.7,2.6C63.8,29.2,65,32.5,65,36L65,36z"></path> <path class="st3" d="M63.5,45.6v-0.5h0.2V45h-0.5v0.1h0.2L63.5,45.6L63.5,45.6z M64.5,45.6V45h-0.2l-0.2,0.4L64,45h-0.1v0.6H64 v-0.5l0.2,0.4h0.1l0.2-0.4L64.5,45.6L64.5,45.6z"></path> </g> </g> </svg> 