<?xml version="1.0" encoding="UTF-8"?> <svg xmlns="http://www.w3.org/2000/svg" xmlns:xlink="http://www.w3.org/1999/xlink" version="1.1" id="Layer_1" x="0px" y="0px" width="80px" height="80px" viewBox="0 0 80 80" style="enable-background:new 0 0 80 80;" xml:space="preserve"> <style type="text/css"> .st0{fill:#008661;} .st1{fill:#FFFFFF;} .st2{fill:#DE8227;} </style> <g> <g> <path class="st0" d="M54.5,21.3c0,16.1,0,32.2,0,48.2c-9.7,0-19.3,0-29,0c0-16.1,0-32.2,0-48.2c0.8,0,1.6,0,2.4,0 c0-0.1,0-0.2,0-0.3c0-3.4,0-6.8,0-10.2c0-0.1,0-0.2,0-0.3c1.1,0,2.3,0,3.4,0c0,0.1,0,0.1,0,0.2c0,3.5,0,6.9,0,10.4 c0,0.1,0,0.2,0,0.3c0.1,0,0.3,0,0.4,0c7.5,0,14.9,0,22.4,0C54.3,21.3,54.4,21.3,54.5,21.3z"></path> <path class="st1" d="M54.5,21.3c-0.1,0-0.2,0-0.4,0c-7.5,0-14.9,0-22.4,0c-0.1,0-0.3,0-0.4,0c0-0.1,0-0.2,0-0.3 c0-3.5,0-6.9,0-10.4c0-0.1,0-0.1,0-0.2c7.7,0,15.4,0,23.1,0C54.5,14.1,54.5,17.7,54.5,21.3z"></path> <path class="st1" d="M27.9,10.5c0,0.1,0,0.2,0,0.3c0,3.4,0,6.8,0,10.2c0,0.1,0,0.2,0,0.3c-0.8,0-1.6,0-2.4,0c0-3.6,0-7.2,0-10.8 C26.3,10.5,27.1,10.5,27.9,10.5z"></path> </g> <g> <g> <g> <g> <g> <path class="st1" d="M39.9,23c-1.2,0-2.3,0.5-3.1,1.4c-0.8,0.9-1.3,2-1.2,3.2c0,2.5,2.1,4.5,4.5,4.5l0,0 c2.5,0,4.4-2.1,4.4-4.6C44.3,25,42.3,23,39.9,23z M35.7,27.6c0-1.2,0.4-2.3,1.2-3.1c0.8-0.8,1.9-1.3,3-1.3 c2.4,0,4.3,1.9,4.4,4.3c0,2.4-1.8,4.4-4.2,4.4l0,0C37.6,32,35.7,30,35.7,27.6z"></path> </g> <g> <g> <path class="st1" d="M43.9,28L43.9,28c-0.2-0.2-0.3-0.1-0.3-0.1l-0.3,0V28l0.3,0v0.1h0.1V28L43.9,28z"></path> </g> <g> <polygon class="st1" points="36.4,27.3 36.4,27.2 36.4,27.2 36.4,27.3 "></polygon> </g> <g> <polygon class="st1" points="36.4,27.1 36.4,27.1 36.4,27.2 36.4,27.2 "></polygon> </g> <g> <polygon class="st1" points="37.5,24.8 37.6,24.8 37.6,24.7 37.5,24.7 "></polygon> </g> <g> <polygon class="st1" points="37.6,24.6 37.5,24.6 37.5,24.7 37.6,24.7 "></polygon> </g> <g> <polygon class="st1" points="37.7,24.6 37.6,24.6 37.6,24.7 37.7,24.7 "></polygon> </g> <g> <path class="st1" d="M36.7,25.9C36.7,25.8,36.6,25.8,36.7,25.9c-0.1,0-0.3-0.1-0.3-0.1l0.1,0.2c0.2,0,0.4,0,0.4,0 c0.1,0.2-0.1,0.3-0.1,0.3c0,0.2-0.1,0.3-0.1,0.3c0,0.2-0.1,0.5-0.1,0.5c0,0.2-0.1,0.3-0.1,0.3c0,0.2-0.2,0.2-0.2,0.2l0,0.1 c0,0,0.2-0.1,0.2-0.1c0,0.1,0,0.2,0,0.2c0.1,0,0.1-0.3,0.1-0.3c0.1-0.1,0-0.2,0-0.2l0.2,0l0-0.1l-0.1,0c0-0.1,0-0.2,0-0.2 c0-0.1,0.1-0.3,0.1-0.3l0.1,0l0-0.1c-0.1,0-0.1-0.1-0.1-0.1c0,0,0.1-0.2,0.1-0.2c0.1-0.1,0.1-0.2,0.1-0.2l0-0.2 C37,26,36.7,25.9,36.7,25.9z"></path> </g> <g> <path class="st1" d="M38,24.4c-0.2,0,0,0.2,0,0.2c0,0.1-0.2,0.1-0.2,0.1l0,0.2l-0.1,0l0,0.2l-0.1,0l0,0.2L37,25.8 c-0.2,0.1,0-0.3,0-0.3c0-0.1-0.1-0.1-0.1-0.1c-0.2,0.2-0.1,0.4-0.1,0.4c0.1,0.2,0.7-0.6,0.7-0.6c0.1-0.1,0.1-0.3,0.1-0.3 c0,0,0.2-0.2,0.2-0.2c0-0.1,0.2,0,0.2,0c-0.1,0,0-0.1,0-0.1c0.1,0,0.1,0,0.1,0l0-0.1l-0.1,0C38.1,24.4,38,24.4,38,24.4z"></path> </g> <g> <path class="st1" d="M38.3,24.2c0,0-0.2,0-0.1,0.1c0,0,0.2,0,0.1,0.1c0,0,0,0.1-0.1,0.1c0,0-0.1,0.2,0,0.1 C38.2,24.5,38.5,24.2,38.3,24.2z"></path> </g> <g> <path class="st1" d="M38.6,24.1c0-0.1,0.3,0,0.3,0c0.1,0.1,0.1,0,0.1,0c0-0.1-0.7-0.2-0.7-0.2l0,0.1 C38.5,24.1,38.5,24.2,38.6,24.1l-0.1,0.1h0.1V24.1z"></path> </g> <g> <polygon class="st1" points="39.5,24 39.5,23.9 39.4,23.9 39.4,24 "></polygon> </g> <g> <polygon class="st1" points="39.9,23.8 39.9,23.8 39.9,23.8 39.9,23.8 "></polygon> </g> <g> <path class="st1" d="M40.2,23.8c0,0.1,0,0.2,0,0.2C40.2,24,40,24,40,24l0-0.1l-0.1,0l0,0.1c0,0.1-0.2,0.1-0.2,0.1l0-0.1 c-0.1,0-0.3,0-0.3,0c-0.2,0.1-0.1,0.1-0.1,0.1l0.1,0c0,0.1-0.3,0.1-0.3,0.1c-0.1,0-0.1-0.3-0.1-0.3C39,24,39,23.8,39,23.8 l-0.1,0c-0.1,0.1,0,0.2,0,0.2c0.1,0,0.1,0.2,0.1,0.2c-0.1,0.1-0.2,0-0.2,0c-0.1,0.1-0.3,0.2-0.3,0.2c0.1,0.1,0.3-0.1,0.3-0.1 c0.1,0,0.3-0.1,0.3-0.1c0.4,0,0.5-0.2,0.5-0.2c0.3,0,0.3-0.1,0.3-0.1c0.1,0,0.2,0,0.2,0l0,0.1l0.1,0l0-0.1 C40.3,23.8,40.2,23.8,40.2,23.8z"></path> </g> <g> <path class="st1" d="M41.1,24.2l0-0.1c-0.1,0-0.4,0.1-0.4,0.1l0.5,0.2C41.3,24.2,41.1,24.2,41.1,24.2z"></path> </g> <g> <polygon class="st1" points="41.9,24.4 41.9,24.4 41.8,24.4 41.8,24.4 "></polygon> </g> <g> <path class="st1" d="M42.2,24.7c0,0.1-0.4-0.1-0.4-0.1l0-0.1l0,0c-0.1,0.1-0.3-0.1-0.3-0.1c0,0,0.1-0.2,0.1-0.2l0-0.1 c0-0.1,0.1-0.3,0.1-0.3L41.4,24l0,0.2l-0.1,0.1c0,0.1-0.2,0-0.2,0L40.4,24c0,0.1,0.7,0.4,0.7,0.4c0,0,0.2,0.1,0.2,0.1 l0.2,0.1c0,0,0.2,0,0.2,0l0.1,0.1l0,0.1H42l0.1-0.1c0.1,0,0.2,0,0.2,0c0-0.1,0.1-0.2,0.1-0.2L42.2,24.7L42.2,24.7z"></path> </g> <g> <path class="st1" d="M43.1,25.7l0,0.2l0.1,0l0-0.1L43.1,25.7L43,25.5l0-0.2c0,0-0.2-0.2-0.3-0.1l0,0.1l0.1,0.2 c0,0,0,0.1-0.1,0c0,0-0.4-0.6-0.4-0.7c0,0,0-0.2,0.3,0.1c0,0,0.1,0,0.1,0c0,0-0.3-0.3-0.4-0.1c0,0,0,0.1,0.4,0.7 c0,0,0.2,0.2,0.3,0L43.1,25.7z M42.8,25.3c0-0.1,0.2,0,0.2,0l0,0.1C42.9,25.5,42.8,25.3,42.8,25.3z"></path> </g> <g> <path class="st1" d="M43.5,27.8C43.5,27.7,43.5,27.7,43.5,27.8l-0.2-0.1l0-0.2l0.1,0c0-0.1-0.1-0.1-0.1-0.1 c-0.1,0-0.1-0.2-0.1-0.2l0.1,0l0-0.1l-0.1,0c-0.1-0.3-0.1-0.5-0.1-0.5l0.2,0l0.1,0l0-0.1c0,0,0.2-0.1,0.2-0.1l-0.2-0.1 c-0.1,0-0.1,0.2-0.1,0.2l-0.2,0c-0.1,0.1-0.1-0.1-0.1-0.1c0.2,0.1,0.3-0.1,0.3-0.1c0.1-0.3,0.1-0.6,0.1-0.6 c-0.1,0-0.1,0.3-0.1,0.3l-0.2,0c0,0.1,0.1,0.1,0.1,0.1c0,0.1,0,0.3,0,0.3c-0.2,0.2-0.3-0.3-0.3-0.3c0-0.2-0.1-0.1-0.1-0.1 c0.1,0.8,0.2,0.6,0.2,0.6c-0.1,0.3,0.1,0.6,0.1,0.6c0,0.1,0.1,0.3,0.1,0.3c0,0.1,0,0.1,0,0.1C43.2,27.8,43.5,27.8,43.5,27.8z "></path> </g> </g> <g> <g> <path class="st1" d="M38.2,30.6c0.1-0.2,0-0.3-0.2-0.4c-0.1,0-0.2-0.1-0.2,0c-0.1,0.1,0.1,0.2,0.2,0.2c0,0,0,0,0,0 c0,0,0,0,0,0l-0.4-0.3v0l0,0l0-0.1l0,0c0,0,0,0,0,0c0,0-0.1,0.1-0.1,0.2l0,0c0-0.1,0.1-0.1,0-0.2l-0.1-0.1l-0.3-0.4l0,0 L36.8,29l0,0l0,0c0.1,0,0.1-0.1,0.1-0.2c0,0,0-0.1-0.1-0.1c0,0,0-0.1,0-0.1c0,0,0,0,0.1,0l0,0l0,0c0,0,0,0-0.1,0 c-0.1,0-0.1,0.2-0.1,0.2c0,0,0,0.1,0,0.1c0,0,0,0.1,0,0.1v0c0,0,0,0,0-0.1l-0.1-0.4l0,0.1c0,0,0.1,0.2,0,0.2 c0,0-0.1-0.1-0.1-0.1c0,0-0.1,0,0,0.1c0,0.1,0.1,0.1,0.1,0.1c0,0,0,0,0,0c0,0,0,0.1,0,0.1c-0.1,0-0.1-0.1-0.1-0.1 c0-0.1,0-0.1,0-0.2l-0.1,0.1c0,0.2,0,0.3-0.1,0.5l0.1,0l0.1-0.2c0,0,0-0.1,0-0.1c0,0.1,0.1,0.1,0.2,0.1 c0.1,0,0.1-0.2,0.1-0.2l0.1,0.3c0,0,0,0.1,0,0.1c0,0.1,0.1,0.1,0,0.2c0,0-0.1,0-0.1,0c0,0,0-0.1,0-0.1l-0.1,0 c0,0-0.1,0.1-0.1,0.2c0.1,0.1,0.2,0,0.3,0.1c0,0.1-0.1,0.1-0.1,0.2c0,0-0.1,0-0.1,0.1l0,0.1l0.5-0.3l0.1,0.1l0,0v0l0,0v0 l0.3,0.3L37.2,30l0,0c0,0,0,0,0-0.1c0,0-0.1,0-0.1,0c0,0,0-0.1,0-0.1c-0.1-0.1-0.1-0.1-0.2,0c-0.1,0.1-0.1,0.2,0,0.2 c0,0,0.1,0.1,0.1,0c0,0,0.1-0.1,0-0.1c0,0-0.1,0-0.1,0c0,0,0,0,0,0c0,0,0-0.1,0-0.1c0,0,0.1,0,0.1,0c0,0,0,0.1,0,0.1 c0,0,0,0,0,0l0.1,0c0,0,0,0,0,0c0,0,0,0,0.1,0c0,0,0,0.1,0,0.1l-0.2,0.2l0,0.1l0.4-0.3l0.1,0.1v0c0,0.1,0,0.1,0,0.1l-0.2,0.3 v0.1l0.4-0.4l0.1,0.1c0,0,0,0.1,0,0.1c0,0.1,0.1,0.1,0.1,0.2c0-0.1-0.1-0.1-0.2,0c0,0,0,0.1,0,0.1c0,0,0.1,0.1,0.1,0 c0.1,0,0,0.2,0,0.3l0.3-0.4l0.1,0.1l0,0l0,0L37.8,31l0,0.1L38.2,30.6l0.1,0.1L38.2,30.6L38.2,30.6z M36.8,29.5 c0,0,0-0.1,0-0.1c0,0,0,0-0.1,0c0.1,0,0.1,0,0.1-0.1l0.1,0.2L36.8,29.5z M37.7,30.7c0,0,0-0.1,0-0.1c0.1-0.1,0.1-0.2,0-0.3 l0.2,0.1L37.7,30.7z M38.1,30.5L38,30.5l0,0c0.1-0.1,0-0.2-0.1-0.2c0,0-0.1-0.1-0.1-0.1h0c0,0,0.1,0,0.1,0 C38.1,30.3,38.2,30.4,38.1,30.5z"></path> </g> <g> <path class="st1" d="M39.4,31.1L39.4,31.1l0-0.1C39.4,31,39.4,31,39.4,31.1c-0.1,0,0,0.1,0,0.1v0c0-0.1,0-0.2-0.1-0.2l-0.1,0 l0,0L39,30.9l-0.5-0.2l0,0.1l0.3,0.1c-0.1,0-0.3,0-0.4,0.1l0,0.1c0.2,0.1,0.1,0.3,0.2,0.4l0.2-0.5l0.1,0.1v0l0.1,0 c0,0-0.1,0.1-0.1,0.1c0,0.1,0,0.1,0,0.2c0,0.1-0.1,0.1-0.1,0.1c0,0,0,0,0,0c0.1,0,0.2-0.1,0.2-0.1c0-0.1,0-0.2,0-0.3 c0-0.1,0.1-0.1,0.1-0.1l0,0c0,0,0,0,0,0c0,0,0,0,0,0c0.1,0,0.1,0.1,0,0.1l-0.1,0.4l0.1,0.1L39.4,31.1l0.1,0.1L39.4,31.1 L39.4,31.1z M38.7,31.3c0-0.1-0.1-0.1-0.1-0.2c0.1,0,0.1,0,0.2,0L38.7,31.3z"></path> </g> <g> <path class="st1" d="M39.6,31.5c0.1,0.1,0.2,0.2,0.3,0.3l0-0.1c-0.1-0.1-0.2-0.2-0.3-0.4L39.6,31.5z"></path> </g> <g> <path class="st1" d="M39.7,31.4c0.1,0,0.1-0.1,0.1-0.1c0-0.1-0.1-0.1-0.1-0.1c-0.1,0-0.1,0.1-0.1,0.1 C39.5,31.3,39.6,31.4,39.7,31.4z M39.7,31.2C39.7,31.2,39.7,31.2,39.7,31.2L39.7,31.2c0,0.1,0,0.1-0.1,0.1 C39.6,31.3,39.6,31.3,39.7,31.2C39.6,31.2,39.7,31.2,39.7,31.2z"></path> </g> <g> <path class="st1" d="M39.7,31.4L39.7,31.4C39.7,31.4,39.7,31.4,39.7,31.4L39.7,31.4z"></path> </g> <g> <path class="st1" d="M40.5,31.1l-0.7,0l0.1,0.1l0.3,0l0,0c-0.1,0-0.2,0.1-0.3,0.2l0.1,0.1c0.1,0,0.3,0.1,0.3,0.2l0,0l0-0.4 c0.1,0,0.2,0,0.2,0.1c0,0,0,0-0.1,0c0,0-0.1,0-0.1,0.1c0,0,0,0.1,0.1,0.1c0.1,0,0.1-0.1,0.1-0.1c0-0.1-0.1-0.2-0.2-0.2v0 L40.5,31.1L40.5,31.1z M40.1,31.4c0,0,0.1-0.1,0.2-0.1l0,0.2C40.2,31.4,40.1,31.4,40.1,31.4z"></path> </g> <g> <path class="st1" d="M41.5,30.8l-0.1,0l0,0l-0.1,0l0,0c0,0,0,0,0,0.1c0,0.1,0.1,0.1,0.1,0.2v0c0,0-0.1-0.1-0.2-0.1l-0.1,0 L40.7,31l0.1,0l0.3-0.1C41,31,41,31.1,40.9,31.2l0.1,0.1c0.3-0.1,0.3,0.1,0.4,0.1l-0.2-0.5l0.1,0l0,0c0.1,0,0.1,0,0.1,0.1 l0.2,0.3l0.1,0l-0.2-0.5L41.5,30.8z M41.3,31.3c-0.1,0-0.1-0.1-0.2-0.1c0-0.1,0.1-0.1,0.1-0.1L41.3,31.3z"></path> </g> <g> <path class="st1" d="M41.7,30.9l0.1,0.1c0.1,0,0.3,0,0.4,0l0-0.1C42,31,41.9,30.9,41.7,30.9z"></path> </g> <g> <polygon class="st1" points="41.8,30.9 41.8,30.9 41.8,30.9 "></polygon> </g> <g> <path class="st1" d="M41.8,30.9c0.1,0,0.1-0.1,0-0.2c0-0.1-0.1-0.1-0.2-0.1c-0.1,0-0.1,0.1-0.1,0.2 C41.6,30.9,41.7,30.9,41.8,30.9z M41.7,30.7C41.7,30.7,41.7,30.7,41.7,30.7L41.7,30.7c0.1,0,0,0.1,0,0.1c0,0,0,0,0,0 C41.7,30.8,41.7,30.7,41.7,30.7z"></path> </g> <g> <path class="st1" d="M43.3,28.9l0.3,0.1l0.1-0.1l-0.5-0.2l0-0.1l-0.1,0c0,0-0.1,0-0.1,0.1C43.1,28.8,43.2,28.9,43.3,28.9 c-0.1,0-0.2,0-0.2,0c0,0,0,0.1,0,0.1c-0.1,0-0.1,0-0.1,0.1l0,0.1l0,0l-0.3,0.4h0L42.4,30h0l0,0l-0.1,0l0,0c0,0,0,0,0,0 c0,0.1,0.1,0.1,0.2,0.1l0,0c-0.1,0-0.1-0.1-0.2,0l-0.1,0.1l-0.5,0.4l0.1,0l0.3-0.3l0.1,0.1l0,0c0,0,0,0-0.1,0 c0,0,0,0.1,0,0.1c0,0-0.1,0-0.1,0c-0.1,0-0.1,0.1,0,0.2c0.1,0.1,0.2,0.1,0.2,0c0,0,0.1-0.1,0-0.1c0,0-0.1-0.1-0.1,0 c0,0,0,0.1,0,0.1c0,0,0,0,0,0c0,0,0,0-0.1,0c0,0,0-0.1,0-0.1c0,0,0.1,0,0.1,0c0,0,0,0,0,0l0-0.1c0,0,0,0,0,0c0,0,0,0,0-0.1 c0,0,0.1,0,0.1,0l0.2,0.2l0.1,0l-0.3-0.4l0.1-0.1h0c0,0,0.1,0,0.1,0l0.3,0.3h0.1l-0.4-0.4l0-0.1h0l0.1-0.1 c0,0.1,0,0.2,0.1,0.2c0.1,0.1,0.2,0.1,0.3,0c0,0,0-0.1,0-0.1c0,0-0.1,0-0.1,0c0,0,0,0.1,0,0.1c0,0,0,0,0,0l0,0 c0,0.1-0.1,0-0.2,0c-0.1-0.1-0.1-0.2-0.1-0.3l0,0l0,0l0.3,0.2l0.1,0C43,29.8,43,29.7,43,29.6c0,0,0.1,0.1,0.1,0.1 c0.1,0,0.1,0.1,0.2,0.1l0.1,0c-0.1,0-0.1,0-0.1-0.1c-0.1-0.1-0.1-0.1-0.2-0.2l-0.1,0.1c0,0.1,0,0.2,0,0.3l-0.2-0.1l0.2-0.3 l0,0c0,0,0,0,0,0l0,0h0c0,0,0-0.1,0.1-0.1c0,0,0,0.1,0.1,0.1c0,0,0.1,0,0.1-0.1c0,0,0-0.1,0-0.1c0,0,0.1,0,0.1-0.1 C43.3,29.1,43.3,29,43.3,28.9C43.2,29,43.2,29,43.2,29l0,0v0C43.2,28.9,43.2,28.9,43.3,28.9z"></path> </g> </g> </g> <g> <g> <path class="st1" d="M45.2,28.2c0,0-0.6-0.4-0.6-0.2c0,0-0.3,3.4-3.7,4.1l0-0.3l-0.2,0l0,0.3c-0.1,0-0.3,0-0.4,0l0-0.2H40v0.2 c-0.3,0-0.5,0-0.7,0l0-0.2l-0.2,0l0,0.3c-0.3,0-3.2-0.6-3.7-3.9c0,0,0.1-0.1-0.1-0.1c0,0-0.7-0.1-0.7,0.1c0,0-0.3,1,0.2,1.7 c0,0,0.2,0,0.3,0c0,0,0.9,1.9,2.7,2.7c0,0-0.4,0.3-0.4,0.3l0.4,0.6c0,0,0.3,0.5,0.8,0.1c0,0,0.2-0.4,0.3-0.6 c0,0,0.5-0.1,1-0.1c0.6,0,1.1,0.1,1.1,0.1s0.5,1,1,0.5l0.6-0.7l-0.5-0.3c0,0,2.1-1.1,2.5-2.8c0,0,0.2,0.2,0.3,0 c0.1-0.1,0.3-0.6,0.3-0.6S45.6,28.2,45.2,28.2z M34.8,29.7c0,0,0,0-0.1-0.1c0-0.1-0.1-0.5-0.1-0.8c0,0,0,0,0,0 c0-0.2,0.1-0.4,0.1-0.5c0,0,0.1,0.2,0.1,0.5c0,0-0.1,0.1-0.1,0.2c0,0,0,0.1,0,0.1c0,0.1,0.1,0.3,0.2,0.4c0,0,0,0,0,0 C34.8,29.6,34.8,29.7,34.8,29.7z M35.6,30.3l0.4-0.3l0.1,0.1L35.6,30.3L35.6,30.3z M35.8,30.7c-0.1-0.1,0-0.2,0-0.3l0.1,0.1 C35.8,30.5,35.8,30.6,35.8,30.7c0.1,0,0.1,0,0.2,0c0,0,0-0.1,0-0.1l0,0c0-0.1-0.1-0.1,0-0.2c0,0,0.1-0.1,0.2,0.1 c0.1,0.1,0,0.2,0,0.2l-0.1-0.1c0,0,0-0.1,0-0.1c0,0-0.1-0.1-0.1,0c0,0,0,0.1,0,0.1l0,0.1c0,0.1,0,0.1,0,0.2 C35.9,30.8,35.8,30.7,35.8,30.7z M35.9,30.9l0.4-0.3l0.1,0.1l-0.3,0.3l0.1,0.2l-0.1,0.1L35.9,30.9z M36.5,31.4L36.5,31.4 l-0.1-0.2l-0.1,0l-0.1-0.1l0.4-0.2l0.1,0.1L36.5,31.4L36.5,31.4z M36.9,31.8l0.2-0.3l0,0L36.9,31.8l-0.1-0.1l0.2-0.4l0,0 l-0.2,0.3l-0.1-0.1l0.3-0.4l0.1,0.1l-0.2,0.4l0,0l0.3-0.2l0.1,0.1L36.9,31.8L36.9,31.8z M37.1,32L37.1,32l0.2-0.5l0.1,0.1 L37.1,32z M42.4,32.8l-0.5,0.5c0,0-0.8-0.5-1.8-0.5c-1.1,0-1.9,0.5-1.9,0.5l-0.4-0.5c0,0,1-0.7,2.2-0.7 C41.3,32.1,42.4,32.8,42.4,32.8z M42.7,32.1l-0.1,0.1l-0.3-0.4l0.2-0.1c0.1-0.1,0.1,0,0.2,0c0,0.1,0,0.1,0,0.1 c0.1,0,0.1,0,0.1,0c0,0,0,0.1,0,0.1C42.7,32.1,42.7,32.1,42.7,32.1z M43.1,31.8L43.1,31.8l-0.2,0l0,0.1L42.8,32l-0.2-0.5 l0.1-0.1L43.1,31.8L43.1,31.8z M43.4,31.5L43,31.4l0,0l0.2,0.3l-0.1,0.1l-0.3-0.4l0.1-0.1l0.3,0.1l0,0l-0.2-0.2l0.1-0.1 L43.4,31.5L43.4,31.5z M43.7,31.1L43.7,31.1c0,0,0,0.1-0.1,0.1c-0.1,0.1-0.2,0.1-0.3,0c-0.1-0.1-0.1-0.2,0-0.3 c0.1-0.1,0.2-0.1,0.2,0l-0.1,0.1c0,0-0.1,0-0.1,0c0,0,0,0.1,0,0.2c0.1,0.1,0.2,0.1,0.2,0c0,0,0-0.1,0-0.1l-0.1,0.1l-0.1,0 l0.1-0.1L43.7,31.1L43.7,31.1z M43.8,31l-0.4-0.3l0-0.1l0.3,0.2l0.1-0.2l0.1,0.1L43.8,31z M44.2,30.5L44.2,30.5l-0.2,0.1 l0.1,0.1l-0.1,0.1l-0.3-0.4l0.1-0.1L44.2,30.5L44.2,30.5z M44.4,30.2l-0.1,0.2l-0.4-0.2L44,30c0.1-0.1,0.2-0.1,0.3,0 C44.4,30,44.5,30.1,44.4,30.2z M44.5,30l-0.4-0.2l0.1-0.3l0.1,0l-0.1,0.2l0.1,0l0.1-0.2l0.1,0l-0.1,0.2l0.1,0.1l0.1-0.2l0.1,0 L44.5,30z M44.8,29.4c-0.1,0.1-0.2,0.1-0.2,0.1l0-0.1C44.6,29.5,44.7,29.5,44.8,29.4c-0.1-0.1-0.1-0.1-0.1-0.1 c0,0-0.1,0-0.1,0.1l0,0c0,0.1-0.1,0.1-0.2,0.1c0,0-0.1-0.1-0.1-0.2c0-0.1,0.1-0.1,0.2-0.1l0,0.1c0,0-0.1,0-0.1,0.1 c0,0,0,0.1,0,0.1c0,0,0.1,0,0.1,0l0.1-0.1c0,0,0.1-0.1,0.2-0.1C44.8,29.3,44.8,29.4,44.8,29.4z M44.9,28.9l-0.2,0l0,0.2l0.2,0 l0,0.1l-0.5-0.1l0-0.1l0.2,0l0-0.2l-0.2,0l0-0.1L44.9,28.9L44.9,28.9z M45.3,29.2c0,0,0,0.4-0.2,0.6c0,0,0,0,0-0.1 c0,0,0,0,0,0c0,0,0-0.1,0.1-0.1l0,0l0,0C45.1,29.6,45.2,29.4,45.3,29.2C45.2,29.2,45.2,29.2,45.3,29.2 c-0.1-0.1-0.1-0.2-0.2-0.2l0,0c0,0,0,0,0-0.1c0-0.3,0.1-0.5,0.1-0.6l0,0c0,0,0,0,0.1,0c0,0,0.1,0.1,0.1,0.3 C45.4,28.8,45.3,29,45.3,29.2z"></path> </g> <g> <path class="st1" d="M39.7,32.5c0,0,0.1,0,0.1-0.1c0,0-0.1-0.1-0.2-0.1l-0.2,0l0.1,0.5l0.2,0c0.1,0,0.1,0,0.1-0.1 c0,0,0-0.1,0-0.1C39.8,32.5,39.8,32.5,39.7,32.5z M39.5,32.4l0.1,0c0,0,0.1,0,0.1,0c0,0,0,0.1-0.1,0.1l-0.1,0L39.5,32.4z M39.6,32.7l-0.1,0l0-0.1l0.1,0C39.6,32.5,39.7,32.6,39.6,32.7C39.7,32.6,39.7,32.7,39.6,32.7z"></path> </g> <g> <path class="st1" d="M39.8,32.7h0.1l0-0.1h0.2l0,0.1h0.1l-0.2-0.5l-0.1,0L39.8,32.7z M40,32.3L40,32.3l0.1,0.2H40L40,32.3z"></path> </g> <g> <polygon class="st1" points="40.4,32.4 40.4,32.4 40.6,32.7 40.7,32.8 40.7,32.3 40.7,32.3 40.6,32.6 40.6,32.6 40.5,32.3 40.4,32.3 40.3,32.7 40.4,32.7 "></polygon> </g> <g> <polygon class="st1" points="40.9,32.6 41,32.6 41.1,32.8 41.2,32.9 41,32.6 41.3,32.4 41.1,32.4 40.9,32.5 41,32.3 40.9,32.3 40.8,32.8 40.9,32.8 "></polygon> </g> <g> <path class="st1" d="M42.5,32L42.5,32l0,0.2l0.1-0.1C42.7,32,42.7,32,42.5,32C42.6,31.9,42.6,31.9,42.5,32z"></path> </g> <g> <path class="st1" d="M42.5,31.8C42.5,31.8,42.5,31.8,42.5,31.8l-0.2,0.1l0.1,0.1L42.5,31.8C42.5,31.9,42.5,31.9,42.5,31.8z"></path> </g> <g> <polygon class="st1" points="42.9,31.7 42.8,31.6 42.8,31.6 42.8,31.8 "></polygon> </g> <g> <polygon class="st1" points="44.1,30.5 43.9,30.4 43.9,30.4 44,30.5 "></polygon> </g> <g> <path class="st1" d="M44.3,30c-0.1-0.1-0.2,0-0.2,0l0,0.1l0.3,0.2l0-0.1C44.4,30.1,44.3,30.1,44.3,30z"></path> </g> <g> <polygon class="st1" points="36.4,31.2 36.5,31.3 36.6,31.1 36.6,31.1 "></polygon> </g> </g> <g> <g> <path class="st1" d="M42.9,27.6c0-1.7-1.3-3-3-3s-3,1.4-3,3c0,1.1,0.6,2.1,1.5,2.6v-3.4c0-0.2,0.2-0.4,0.2-0.4 c-0.1-0.5,0.4-0.8,0.4-0.8c0.8-0.5,0.8-0.9,0.8-0.9c0.1,0.5,0.8,0.9,0.8,0.9c0.6,0.3,0.4,0.8,0.4,0.8c0.3,0.1,0.3,0.5,0.3,0.5 v3.3C42.3,29.7,42.9,28.8,42.9,27.6z"></path> </g> </g> </g> <g> <g> <path class="st1" d="M38.9,29.3c0.3,0,0.4-0.1,0.4-0.1s-0.5,0-0.5,0c-0.1-0.1,0-0.1,0-0.2c0.1-0.1,0.3-0.1,0.4-0.1 c0,0,0,0,0.1,0c0,0,0,0.1,0.1,0.1c0.1,0,0.1-0.1,0.1-0.1c0,0,0-0.2,0-0.2s0.1,0,0.1,0.1c0,0,0,0.4,0,0.4s0,0,0,0 c0,0,0.1-0.1,0.1-0.1c0,0,0.1,0.1,0.1,0.1c0.1,0,0.1,0,0.1,0s0,0,0,0.1c0.1,0,0.2-0.1,0.2-0.2c0,0,0-0.3,0-0.3c0-0.1,0,0,0,0 l0,0.4c0,0,0.1,0,0.1-0.1c0-0.2,0-0.4-0.1-0.5c0,0,0-0.1,0-0.1c0-0.1,0-0.1,0-0.1c0,0-0.2-0.3-0.2-0.3l0-0.4 c0,0-0.1,0.1-0.1,0.1c0,0.1,0,0.1,0,0.1s0,0.1,0,0.1c-0.1,0-0.1,0-0.1-0.1c0,0-0.1,0-0.1,0l0,1.1c0,0.1-0.1,0-0.1,0l0-0.3 c0,0,0,0-0.1,0.1c0,0.1-0.1,0.1-0.1,0.1l0-0.6c0,0,0-0.1,0-0.1c0-0.1,0-0.1,0-0.1s0-0.4,0-0.4c-0.2,0.2-0.1,0.3-0.1,0.3 s0,0,0.1,0c0,0.1,0,0.1,0,0.1s0,0,0,0c0,0.1,0.1,0.1,0.1,0.1l0,0.4c0,0.1-0.1-0.1-0.1-0.1s0-0.1,0-0.2c0-0.1-0.1-0.1-0.1,0 c0,0.1,0,0.2,0,0.2s0.1,0.1,0.1,0.1c0,0,0,0.3,0,0.3c0,0.1-0.2,0-0.2,0s0,0-0.1,0c-0.1,0.2-0.1-0.1-0.2-0.1 c-0.2-0.1-0.3,0.1-0.3,0.1c0.1,0,0.2,0.1,0.1,0.1C38.6,29.1,38.7,29.3,38.9,29.3z M40,27.9c0,0.1,0,0.1,0,0.1l0.1,0v0.2h0 l0-0.1h0c0,0,0,0.5,0,0.5c0,0.1-0.1,0.1-0.1,0C40,28.8,39.9,27.9,40,27.9C39.9,27.8,40,27.8,40,27.9z M38.9,28.7 C38.9,28.8,38.9,28.8,38.9,28.7C38.9,28.8,38.9,28.8,38.9,28.7C38.8,28.8,38.8,28.7,38.9,28.7z"></path> </g> <g> <path class="st1" d="M38.8,29.1C38.9,29.1,38.9,29,38.8,29.1C38.9,29,38.9,29,38.8,29.1C38.9,29,38.8,29.1,38.8,29.1z"></path> </g> <g> <polygon class="st1" points="39,29 39,29.1 39.1,29 39,29 "></polygon> </g> <g> <polygon class="st1" points="39.9,27.3 40,27.2 39.8,27.2 39.6,27.1 39.6,27.2 39.8,27.3 "></polygon> </g> <g> <path class="st1" d="M40.4,29c0,0.3-0.4,0.2-0.5,0.1c0,0.2,0.2,0.2,0.3,0.2c0.3,0,0.3-0.3,0.3-0.3s0.1,0,0.3,0 c0.1,0,0.1-0.1,0.1-0.2c0,0-0.2-0.1-0.2-0.1c0,0-0.1,0-0.2,0.1c0.1,0,0.1,0,0.2,0.1c0,0-0.2,0.1-0.2,0c0,0-0.1-0.6-0.1-0.7 c0-0.1,0-0.1,0-0.1c0,0,0,0.1,0,0.1S40.4,28.9,40.4,29z"></path> </g> <g> <path class="st1" d="M40.9,28.9c0.2-0.1,0-0.6,0-0.6l-0.1,0.2C41,28.5,40.9,28.9,40.9,28.9z"></path> </g> <g> <path class="st1" d="M41.2,28.7c0,0-0.1,0.2-0.1,0.2c0,0,0.1,0.1,0.1,0.1c0,0.1-0.5,0.2-0.5,0.2s0,0.1,0.1,0.1 c0.1,0,0.5-0.2,0.5-0.3C41.3,28.9,41.2,28.7,41.2,28.7z M41.2,28.9L41.2,28.9L41.2,28.9L41.2,28.9L41.2,28.9z"></path> </g> <g> <path class="st1" d="M41.1,29.4c-0.1,0-0.1,0.2-0.1,0.2c0,0.1,0.1,0.1,0.2,0.1c0,0.1-0.5,0.3-0.5,0.3s0,0.1,0,0.1 c0.2,0,0.5-0.2,0.5-0.4C41.2,29.5,41.1,29.4,41.1,29.4z"></path> </g> <g> <polygon class="st1" points="38.8,29.7 38.7,29.4 38.7,29.4 38.8,29.7 "></polygon> </g> <g> <path class="st1" d="M39.2,29.7c0.3-0.1,0.1-0.3,0.1-0.3s0,0.1,0,0.1c0,0.1-0.1,0-0.1,0L39,29.4c0,0-0.1,0.1-0.1,0.1 c0,0.1,0.1,0.1,0.1,0.1c0,0.1-0.3,0.2-0.3,0.2s0,0,0,0.1C39.1,29.9,39.1,29.8,39.2,29.7z"></path> </g> <g> <path class="st1" d="M39.4,29.8c0,0.1,0,0.1,0,0.2c0,0.1-0.4,0.2-0.5,0.3c-0.1,0,0,0.1,0,0.1c0.4-0.1,0.5-0.3,0.5-0.4 c0.2-0.1,0.2-0.2,0.1-0.3C39.6,29.8,39.4,29.8,39.4,29.8z"></path> </g> <g> <path class="st1" d="M39.5,29.3c0,0.1,0.1,0.3,0.1,0.3c0-0.1,0.1-0.1,0.1,0c0,0.1,0.1,0.2,0.1,0.2c0-0.2,0-0.6,0-0.6 C39.7,29.1,39.6,29.2,39.5,29.3z"></path> </g> <g> <polygon class="st1" points="40.2,29.4 40.3,29.4 40.3,29.4 40.4,29.4 "></polygon> </g> <g> <path class="st1" d="M40.3,29.5L40,29.4c0,0,0,0.1,0,0.1c0,0.1-0.1,0.1-0.2,0.2c0,0.1,0,0.7,0,0.7l0.1,0v-0.6 c0,0,0-0.1,0.1-0.1c0-0.1,0.2-0.1,0.2-0.1C40.3,29.6,40.3,29.5,40.3,29.5z"></path> </g> <g> <path class="st1" d="M40.1,30c-0.1,0.1,0,0.3,0.1,0.3c0.2,0,0.1-0.1,0.1-0.2C40.1,30.2,40.1,30,40.1,30z"></path> </g> <g> <path class="st1" d="M40.8,29.5c0,0-0.1,0-0.1,0c-0.1,0-0.2,0-0.2,0l0,0.1c0.1,0,0.2,0,0.2,0.1c-0.2,0.1-0.2,0.3-0.2,0.3 c0.2-0.1,0.3-0.2,0.4-0.2C40.9,29.6,40.8,29.5,40.8,29.5z"></path> </g> </g> </g> </g> <g> <path class="st2" d="M37.8,57.5l-3-9.4v10.2c0,0.6-0.2,1-0.5,1.3c-0.3,0.3-0.8,0.4-1.3,0.4c-0.5,0-0.9-0.1-1.3-0.4 c-0.3-0.3-0.5-0.7-0.5-1.3V46.6c0-0.6,0.2-1.1,0.6-1.3c0.4-0.2,1-0.3,1.7-0.3h1.2c0.7,0,1.2,0.1,1.5,0.2c0.3,0.1,0.6,0.3,0.7,0.5 c0.2,0.3,0.3,0.7,0.5,1.3l2.7,8.1l2.7-8.1c0.2-0.6,0.4-1,0.5-1.3c0.2-0.3,0.4-0.4,0.7-0.5c0.3-0.1,0.8-0.2,1.5-0.2H47 c0.7,0,1.3,0.1,1.7,0.3c0.4,0.2,0.6,0.7,0.6,1.3v11.7c0,0.6-0.2,1-0.5,1.3c-0.3,0.3-0.8,0.4-1.3,0.4c-0.5,0-0.9-0.1-1.2-0.4 c-0.3-0.3-0.5-0.7-0.5-1.3V48.1l-3,9.4c-0.2,0.6-0.4,1.1-0.5,1.3c-0.1,0.3-0.4,0.5-0.7,0.8c-0.3,0.2-0.8,0.4-1.4,0.4 c-0.4,0-0.8-0.1-1.1-0.2c-0.3-0.1-0.5-0.3-0.7-0.6c-0.2-0.2-0.3-0.5-0.4-0.8C38,58.1,37.9,57.8,37.8,57.5"></path> <path class="st2" d="M47.6,60.1c-0.5,0-1-0.2-1.4-0.5c-0.4-0.3-0.6-0.8-0.6-1.4v-8.9l-2.6,8.2c-0.2,0.7-0.4,1.1-0.5,1.4 c-0.1,0.3-0.4,0.6-0.8,0.9c-0.4,0.3-0.9,0.4-1.5,0.4c-0.5,0-0.9-0.1-1.2-0.2c-0.3-0.2-0.6-0.4-0.8-0.6c-0.2-0.3-0.3-0.5-0.4-0.8 c-0.1-0.2-0.2-0.5-0.3-0.8l0-0.1L35,49.3v8.9c0,0.6-0.2,1.1-0.5,1.4c-0.4,0.3-0.8,0.5-1.4,0.5c-0.6,0-1-0.2-1.4-0.5 c-0.4-0.3-0.6-0.8-0.6-1.4V46.6c0-0.7,0.3-1.2,0.7-1.5c0.5-0.2,1.1-0.4,1.8-0.4h1.2c0.7,0,1.3,0.1,1.6,0.2 c0.4,0.1,0.6,0.3,0.8,0.6c0.2,0.3,0.3,0.7,0.5,1.3l2.5,7.5l2.5-7.5c0.2-0.6,0.4-1,0.5-1.3c0.2-0.3,0.4-0.5,0.8-0.6 c0.3-0.1,0.9-0.2,1.6-0.2H47c0.8,0,1.4,0.1,1.8,0.4c0.5,0.3,0.7,0.8,0.7,1.5v11.7c0,0.6-0.2,1.1-0.5,1.4 C48.7,60,48.2,60.1,47.6,60.1z M45.7,48l0.4,0.1v10.2c0,0.5,0.1,0.9,0.4,1.1c0.3,0.3,0.7,0.4,1.1,0.4c0.5,0,0.9-0.1,1.2-0.4 c0.3-0.2,0.4-0.6,0.4-1.1V46.6c0-0.6-0.2-0.9-0.5-1.1c-0.4-0.2-1-0.3-1.6-0.3h-1.2c-0.7,0-1.2,0-1.5,0.1c-0.3,0.1-0.5,0.2-0.6,0.5 c-0.1,0.3-0.3,0.7-0.5,1.2l-2.9,8.6L37.4,47c-0.2-0.6-0.4-1-0.5-1.2c-0.1-0.2-0.3-0.4-0.6-0.5c-0.3-0.1-0.8-0.1-1.5-0.1h-1.2 c-0.7,0-1.2,0.1-1.6,0.3c-0.4,0.2-0.5,0.6-0.5,1.1v11.7c0,0.5,0.1,0.9,0.4,1.1c0.3,0.3,0.7,0.4,1.1,0.4c0.5,0,0.9-0.1,1.1-0.4 c0.3-0.2,0.4-0.6,0.4-1.1V48.1L35,48l3.1,9.5c0.1,0.3,0.2,0.5,0.3,0.8c0.1,0.3,0.2,0.5,0.4,0.7c0.2,0.2,0.4,0.4,0.6,0.5 c0.3,0.1,0.6,0.2,1,0.2c0.5,0,1-0.1,1.3-0.3c0.3-0.2,0.5-0.4,0.6-0.7c0.1-0.3,0.3-0.7,0.5-1.3L45.7,48z"></path> </g> <g> <g> <path class="st1" d="M35.5,64.3c0,0.2,0,0.3-0.1,0.5c-0.1,0.2-0.2,0.4-0.3,0.6c-0.2,0.2-0.4,0.3-0.6,0.4 c-0.2,0.1-0.5,0.2-0.8,0.2c-0.2,0-0.5,0-0.7-0.1c-0.2-0.1-0.4-0.1-0.5-0.2c-0.2-0.1-0.3-0.2-0.5-0.4c-0.1-0.2-0.2-0.3-0.3-0.5 c-0.1-0.2-0.1-0.4-0.2-0.6c0-0.2-0.1-0.5-0.1-0.7c0-0.4,0.1-0.8,0.2-1.1c0.1-0.3,0.3-0.6,0.5-0.8c0.2-0.2,0.4-0.4,0.7-0.5 c0.3-0.1,0.6-0.2,0.9-0.2c0.4,0,0.7,0.1,1,0.2c0.3,0.2,0.5,0.4,0.7,0.6c0.1,0.2,0.2,0.5,0.2,0.7c0,0.1,0,0.2-0.1,0.3 c-0.1,0.1-0.2,0.1-0.3,0.1c-0.1,0-0.2,0-0.3-0.1c-0.1-0.1-0.1-0.2-0.2-0.3c-0.1-0.3-0.3-0.4-0.4-0.6c-0.2-0.1-0.4-0.2-0.6-0.2 c-0.4,0-0.7,0.2-0.9,0.5c-0.2,0.3-0.3,0.8-0.3,1.4c0,0.4,0,0.7,0.2,1c0.1,0.3,0.2,0.5,0.4,0.6c0.2,0.1,0.4,0.2,0.6,0.2 c0.3,0,0.5-0.1,0.7-0.2c0.2-0.2,0.3-0.4,0.4-0.6c0-0.1,0.1-0.2,0.1-0.3c0.1-0.1,0.2-0.1,0.3-0.1c0.1,0,0.2,0,0.3,0.1 C35.4,64.1,35.5,64.2,35.5,64.3"></path> </g> <g> <path class="st1" d="M37.4,63.9h1.4l-0.7-2.1L37.4,63.9z M39.2,65.3L39,64.7h-1.9l-0.2,0.6c-0.1,0.2-0.2,0.4-0.2,0.5 c-0.1,0.1-0.2,0.1-0.3,0.1c-0.1,0-0.2,0-0.3-0.1C36,65.7,36,65.6,36,65.5c0-0.1,0-0.1,0-0.2c0-0.1,0.1-0.2,0.1-0.3l1.2-3.3 c0-0.1,0.1-0.2,0.1-0.3c0-0.1,0.1-0.2,0.1-0.3c0.1-0.1,0.1-0.2,0.2-0.2c0.1,0,0.2-0.1,0.3-0.1c0.1,0,0.2,0,0.3,0.1 c0.1,0.1,0.2,0.1,0.2,0.2c0,0.1,0.1,0.2,0.1,0.3c0,0.1,0.1,0.2,0.1,0.4l1.2,3.3c0.1,0.3,0.1,0.4,0.1,0.5c0,0.1,0,0.2-0.1,0.3 C40,65.9,39.9,66,39.8,66c-0.1,0-0.1,0-0.2,0c-0.1,0-0.1-0.1-0.1-0.1c0-0.1-0.1-0.1-0.1-0.2C39.3,65.5,39.3,65.4,39.2,65.3"></path> </g> <g> <path class="st1" d="M44.4,64.4c0,0.3-0.1,0.6-0.2,0.8c-0.1,0.2-0.4,0.4-0.6,0.6c-0.3,0.1-0.6,0.2-1,0.2c-0.4,0-0.8-0.1-1.1-0.3 c-0.2-0.1-0.4-0.3-0.5-0.5c-0.1-0.2-0.2-0.4-0.2-0.7c0-0.1,0-0.2,0.1-0.3c0.1-0.1,0.2-0.1,0.3-0.1c0.1,0,0.2,0,0.2,0.1 c0.1,0.1,0.1,0.2,0.2,0.3c0.1,0.2,0.1,0.3,0.2,0.4c0.1,0.1,0.2,0.2,0.3,0.3c0.1,0.1,0.3,0.1,0.5,0.1c0.3,0,0.5-0.1,0.7-0.2 c0.2-0.1,0.3-0.3,0.3-0.5c0-0.2,0-0.3-0.1-0.4c-0.1-0.1-0.2-0.2-0.4-0.2c-0.1-0.1-0.3-0.1-0.6-0.2c-0.3-0.1-0.6-0.2-0.8-0.3 c-0.2-0.1-0.4-0.3-0.5-0.5c-0.1-0.2-0.2-0.4-0.2-0.7c0-0.3,0.1-0.5,0.2-0.7c0.1-0.2,0.3-0.4,0.6-0.5c0.3-0.1,0.6-0.2,0.9-0.2 c0.3,0,0.5,0,0.7,0.1c0.2,0.1,0.4,0.2,0.5,0.3c0.1,0.1,0.2,0.3,0.3,0.4c0.1,0.1,0.1,0.3,0.1,0.4c0,0.1,0,0.2-0.1,0.3 c-0.1,0.1-0.2,0.1-0.3,0.1c-0.1,0-0.2,0-0.2-0.1c-0.1-0.1-0.1-0.2-0.2-0.3c-0.1-0.2-0.2-0.3-0.3-0.4c-0.1-0.1-0.3-0.2-0.6-0.2 c-0.2,0-0.4,0.1-0.6,0.2c-0.2,0.1-0.2,0.3-0.2,0.4c0,0.1,0,0.2,0.1,0.3c0.1,0.1,0.1,0.1,0.2,0.2c0.1,0.1,0.2,0.1,0.3,0.1 c0.1,0,0.2,0.1,0.4,0.1c0.3,0.1,0.5,0.1,0.7,0.2c0.2,0.1,0.4,0.2,0.5,0.3c0.1,0.1,0.3,0.3,0.3,0.4C44.3,63.9,44.4,64.1,44.4,64.4 "></path> </g> <g> <path class="st1" d="M46.1,61.4v1.4h2v-1.4c0-0.2,0-0.4,0.1-0.5c0.1-0.1,0.2-0.2,0.3-0.2c0.1,0,0.2,0.1,0.3,0.1 C49,61,49,61.2,49,61.4v4c0,0.2,0,0.4-0.1,0.5c-0.1,0.1-0.2,0.2-0.3,0.2c-0.1,0-0.3,0-0.3-0.2c-0.1-0.1-0.1-0.3-0.1-0.5v-1.7h-2 v1.7c0,0.2,0,0.4-0.1,0.5c-0.1,0.1-0.2,0.2-0.3,0.2c-0.1,0-0.3,0-0.3-0.2c-0.1-0.1-0.1-0.3-0.1-0.5v-4c0-0.2,0-0.4,0.1-0.5 c0.1-0.1,0.2-0.2,0.3-0.2c0.1,0,0.2,0.1,0.3,0.1C46.1,61,46.1,61.2,46.1,61.4"></path> </g> </g> <g> <g> <g> <path class="st1" d="M33.3,38.9V39h-2.1v-0.1h0.2c0.2,0,0.4-0.1,0.4-0.1c0.1-0.1,0.1-0.2,0.1-0.5v-2.8c0-0.2,0-0.4,0-0.4 c0-0.1-0.1-0.1-0.2-0.1c-0.1-0.1-0.2-0.1-0.3-0.1h-0.2v-0.1h2.1v0.1h-0.2c-0.2,0-0.3,0-0.4,0.2c-0.1,0.1-0.1,0.2-0.1,0.5v2.8 c0,0.2,0,0.4,0,0.4c0,0.1,0.1,0.1,0.2,0.1c0.1,0,0.2,0.1,0.3,0.1H33.3z"></path> </g> <g> <path class="st1" d="M35.8,36v1h-0.1c-0.1-0.3-0.2-0.5-0.4-0.6c-0.1-0.1-0.3-0.2-0.5-0.2c-0.2,0-0.3,0-0.4,0.1 c-0.1,0.1-0.2,0.2-0.2,0.3c0,0.1,0,0.2,0.1,0.3c0.1,0.1,0.2,0.2,0.5,0.3l0.5,0.2c0.5,0.2,0.7,0.5,0.7,0.8c0,0.3-0.1,0.5-0.3,0.6 c-0.2,0.2-0.5,0.2-0.8,0.2c-0.2,0-0.4,0-0.7-0.1c-0.1,0-0.1,0-0.2,0C34,38.9,34,39,34,39h-0.1v-1H34c0.1,0.3,0.2,0.5,0.4,0.7 c0.2,0.2,0.4,0.2,0.6,0.2c0.2,0,0.3,0,0.4-0.1c0.1-0.1,0.2-0.2,0.2-0.3c0-0.1-0.1-0.3-0.2-0.4c-0.1-0.1-0.3-0.2-0.7-0.4 c-0.4-0.1-0.6-0.3-0.7-0.4c-0.1-0.1-0.2-0.3-0.2-0.5c0-0.2,0.1-0.4,0.3-0.6c0.2-0.2,0.4-0.2,0.7-0.2c0.1,0,0.3,0,0.5,0.1 c0.1,0,0.2,0,0.2,0c0,0,0.1,0,0.1,0c0,0,0,0,0.1-0.1H35.8z"></path> </g> <g> <path class="st1" d="M37.8,34.5v3.8c0,0.2,0,0.3,0,0.4c0,0.1,0.1,0.1,0.1,0.1c0.1,0,0.2,0,0.4,0V39h-1.7v-0.1c0.2,0,0.3,0,0.3,0 c0.1,0,0.1-0.1,0.1-0.1c0-0.1,0-0.2,0-0.4v-2.6c0-0.3,0-0.5,0-0.6c0-0.1,0-0.1-0.1-0.2c0,0-0.1,0-0.1,0c-0.1,0-0.1,0-0.2,0 l-0.1-0.1l1-0.3H37.8z"></path> </g> <g> <path class="st1" d="M40.6,38.6c-0.3,0.2-0.6,0.4-0.7,0.4C39.8,39,39.7,39,39.5,39c-0.2,0-0.4-0.1-0.6-0.2 c-0.2-0.1-0.2-0.3-0.2-0.5c0-0.1,0-0.3,0.1-0.4c0.1-0.1,0.3-0.3,0.5-0.4c0.2-0.1,0.7-0.3,1.2-0.5v-0.1c0-0.3-0.1-0.5-0.2-0.6 c-0.1-0.1-0.3-0.2-0.5-0.2c-0.1,0-0.3,0-0.4,0.1c-0.1,0.1-0.1,0.2-0.1,0.2l0,0.2c0,0.1,0,0.2-0.1,0.2C39.3,37,39.2,37,39.1,37 c-0.1,0-0.2,0-0.2-0.1c-0.1-0.1-0.1-0.1-0.1-0.2c0-0.2,0.1-0.3,0.3-0.5c0.2-0.2,0.5-0.2,0.9-0.2c0.3,0,0.5,0,0.7,0.1 c0.1,0.1,0.3,0.2,0.3,0.3c0,0.1,0.1,0.3,0.1,0.6v1c0,0.3,0,0.4,0,0.5c0,0.1,0,0.1,0.1,0.1c0,0,0.1,0,0.1,0c0,0,0.1,0,0.1,0 c0.1,0,0.1-0.1,0.3-0.2v0.2C41.5,38.9,41.2,39,41,39c-0.1,0-0.2,0-0.3-0.1C40.6,38.8,40.6,38.7,40.6,38.6z M40.6,38.3v-1.1 c-0.4,0.1-0.6,0.2-0.7,0.3c-0.2,0.1-0.3,0.2-0.4,0.3c-0.1,0.1-0.1,0.2-0.1,0.3c0,0.1,0.1,0.3,0.2,0.4c0.1,0.1,0.2,0.2,0.4,0.2 C40,38.7,40.3,38.6,40.6,38.3z"></path> </g> <g> <path class="st1" d="M43,36.6c0.2-0.2,0.4-0.3,0.4-0.4c0.1-0.1,0.2-0.1,0.3-0.2c0.1,0,0.3-0.1,0.4-0.1c0.2,0,0.4,0.1,0.5,0.2 c0.1,0.1,0.3,0.3,0.3,0.5c0.3-0.3,0.5-0.4,0.6-0.5C45.8,36,46,36,46.2,36c0.2,0,0.3,0,0.5,0.1c0.1,0.1,0.2,0.2,0.3,0.4 c0.1,0.1,0.1,0.3,0.1,0.6v1.2c0,0.2,0,0.3,0,0.4c0,0,0.1,0.1,0.1,0.1c0.1,0,0.2,0.1,0.3,0.1V39h-1.7v-0.1H46 c0.1,0,0.3,0,0.3-0.1c0.1,0,0.1-0.1,0.1-0.2c0,0,0-0.1,0-0.3v-1.2c0-0.2,0-0.4-0.1-0.5c-0.1-0.1-0.2-0.2-0.5-0.2 c-0.1,0-0.3,0-0.4,0.1c-0.1,0.1-0.3,0.2-0.5,0.3l0,0l0,0.1v1.4c0,0.2,0,0.3,0,0.4c0,0,0.1,0.1,0.1,0.1c0.1,0,0.2,0.1,0.4,0.1V39 h-1.7v-0.1c0.2,0,0.3,0,0.4-0.1c0.1,0,0.1-0.1,0.1-0.2c0,0,0-0.1,0-0.3v-1.2c0-0.2,0-0.4-0.1-0.5c-0.1-0.1-0.3-0.2-0.4-0.2 c-0.1,0-0.3,0-0.4,0.1c-0.2,0.1-0.4,0.2-0.5,0.3v1.5c0,0.2,0,0.3,0,0.4c0,0.1,0.1,0.1,0.1,0.1c0.1,0,0.2,0,0.4,0V39h-1.7v-0.1 c0.1,0,0.3,0,0.3,0c0.1,0,0.1-0.1,0.1-0.1c0-0.1,0-0.2,0-0.4v-1.1c0-0.3,0-0.5,0-0.6c0-0.1,0-0.1-0.1-0.1c0,0-0.1,0-0.2,0 c-0.1,0-0.2,0-0.2,0l-0.1-0.1l1-0.3H43V36.6z"></path> </g> <g> <path class="st1" d="M49,36v2.3c0,0.2,0,0.3,0,0.4c0,0.1,0.1,0.1,0.1,0.1c0.1,0,0.2,0,0.3,0V39h-1.6v-0.1c0.2,0,0.3,0,0.3,0 c0.1,0,0.1-0.1,0.1-0.1c0-0.1,0-0.2,0-0.4v-1.1c0-0.3,0-0.5,0-0.6c0-0.1,0-0.1-0.1-0.1c0,0-0.1,0-0.2,0c-0.1,0-0.2,0-0.2,0 l-0.1-0.1l1-0.3H49z M48.7,34.5c0.1,0,0.2,0,0.3,0.1c0.1,0.1,0.1,0.1,0.1,0.2c0,0.1,0,0.2-0.1,0.2c-0.1,0.1-0.2,0.1-0.3,0.1 c-0.1,0-0.2,0-0.3-0.1c-0.1-0.1-0.1-0.1-0.1-0.2c0-0.1,0-0.2,0.1-0.2C48.5,34.5,48.6,34.5,48.7,34.5z"></path> </g> </g> <g> <g> <path class="st1" d="M34.5,41.8c0.3,0.1,0.6,0.2,0.8,0.3c0.2,0.2,0.4,0.4,0.4,0.7c0,0.2-0.1,0.4-0.2,0.6 c-0.2,0.2-0.4,0.3-0.6,0.4C34.4,44,34,44,33.5,44h-2.3v-0.1h0.2c0.2,0,0.3-0.1,0.4-0.2c0.1-0.1,0.1-0.2,0.1-0.5v-2.7 c0-0.3,0-0.4-0.1-0.5c-0.1-0.1-0.2-0.1-0.4-0.1h-0.2v-0.1h2.1c0.4,0,0.7,0,1,0.1c0.4,0.1,0.6,0.2,0.8,0.4 c0.2,0.2,0.3,0.4,0.3,0.7c0,0.2-0.1,0.4-0.2,0.6C35,41.6,34.7,41.7,34.5,41.8z M32.5,41.6c0.1,0,0.2,0,0.3,0c0.1,0,0.2,0,0.4,0 c0.4,0,0.6,0,0.8-0.1c0.2-0.1,0.3-0.2,0.4-0.3c0.1-0.1,0.1-0.3,0.1-0.4c0-0.2-0.1-0.5-0.4-0.6c-0.2-0.2-0.6-0.3-1-0.3 c-0.2,0-0.5,0-0.7,0.1V41.6z M32.5,43.7c0.3,0.1,0.6,0.1,0.8,0.1c0.4,0,0.8-0.1,1-0.3c0.2-0.2,0.3-0.4,0.3-0.6 c0-0.2-0.1-0.3-0.2-0.5c-0.1-0.2-0.3-0.3-0.5-0.4c-0.2-0.1-0.5-0.1-0.9-0.1c-0.1,0-0.3,0-0.4,0c-0.1,0-0.2,0-0.3,0V43.7z"></path> </g> <g> <path class="st1" d="M38.9,43.6c-0.3,0.2-0.6,0.4-0.6,0.4c-0.1,0.1-0.3,0.1-0.4,0.1c-0.2,0-0.4-0.1-0.6-0.2 c-0.1-0.1-0.2-0.3-0.2-0.5c0-0.1,0-0.3,0.1-0.4c0.1-0.1,0.3-0.3,0.5-0.4c0.2-0.1,0.7-0.3,1.2-0.5V42c0-0.3,0-0.5-0.2-0.6 c-0.1-0.1-0.3-0.1-0.5-0.1c-0.2,0-0.3,0-0.4,0.1c-0.1,0.1-0.1,0.2-0.1,0.2l0,0.2c0,0.1,0,0.2-0.1,0.2c-0.1,0.1-0.1,0.1-0.2,0.1 c-0.1,0-0.2,0-0.2-0.1c-0.1-0.1-0.1-0.1-0.1-0.2c0-0.2,0.1-0.3,0.3-0.5c0.2-0.2,0.5-0.2,0.9-0.2c0.3,0,0.5,0,0.7,0.1 c0.1,0.1,0.3,0.2,0.3,0.3c0,0.1,0.1,0.3,0.1,0.6v1c0,0.3,0,0.4,0,0.5c0,0.1,0,0.1,0.1,0.1c0,0,0.1,0,0.1,0c0,0,0.1,0,0.1,0 c0,0,0.1-0.1,0.3-0.2v0.2c-0.3,0.3-0.5,0.5-0.8,0.5c-0.1,0-0.2,0-0.3-0.1C39,43.9,38.9,43.8,38.9,43.6z M38.9,43.4v-1.1 c-0.4,0.1-0.6,0.2-0.7,0.3c-0.2,0.1-0.3,0.2-0.4,0.3c-0.1,0.1-0.1,0.2-0.1,0.3c0,0.2,0,0.3,0.2,0.4c0.1,0.1,0.2,0.1,0.4,0.1 C38.4,43.7,38.6,43.6,38.9,43.4z"></path> </g> <g> <path class="st1" d="M42.1,41.6c0.4-0.4,0.8-0.6,1.1-0.6c0.2,0,0.3,0,0.5,0.1c0.1,0.1,0.2,0.2,0.3,0.4c0,0.1,0.1,0.3,0.1,0.6 v1.2c0,0.2,0,0.3,0,0.4c0,0.1,0.1,0.1,0.1,0.1c0.1,0,0.2,0,0.3,0V44H43v-0.1h0.1c0.2,0,0.3,0,0.3-0.1c0.1,0,0.1-0.1,0.1-0.2 c0,0,0-0.1,0-0.3v-1.2c0-0.3,0-0.5-0.1-0.6c-0.1-0.1-0.2-0.2-0.4-0.2c-0.3,0-0.6,0.1-0.9,0.4v1.5c0,0.2,0,0.3,0,0.4 c0,0.1,0.1,0.1,0.1,0.1c0.1,0,0.2,0,0.4,0V44H41v-0.1h0.1c0.2,0,0.3,0,0.3-0.1c0.1-0.1,0.1-0.2,0.1-0.4v-1.1c0-0.3,0-0.5,0-0.6 c0-0.1-0.1-0.1-0.1-0.1c0,0-0.1,0-0.2,0s-0.2,0-0.2,0.1L41,41.4l1-0.3h0.2V41.6z"></path> </g> <g> <path class="st1" d="M46.7,39.5v2.9l0.9-0.7c0.2-0.1,0.3-0.2,0.3-0.3c0,0,0-0.1,0-0.1c0,0,0-0.1-0.1-0.1c0,0-0.1-0.1-0.2-0.1 v-0.1h1.5v0.1c-0.2,0-0.4,0-0.5,0.1c-0.1,0-0.3,0.1-0.4,0.3l-0.9,0.7l0.9,0.9c0.2,0.3,0.4,0.4,0.5,0.5c0.1,0.1,0.2,0.1,0.3,0.2 c0.1,0,0.2,0,0.3,0V44h-1.6v-0.1c0.1,0,0.2,0,0.2,0c0,0,0,0,0-0.1c0,0,0-0.1-0.1-0.2l-1-1.1v1c0,0.2,0,0.3,0,0.4 c0,0.1,0.1,0.1,0.1,0.1c0.1,0,0.2,0,0.4,0V44h-1.7v-0.1c0.2,0,0.3,0,0.4-0.1c0,0,0.1-0.1,0.1-0.1c0-0.1,0.1-0.2,0.1-0.4v-2.6 c0-0.3,0-0.5,0-0.6c0-0.1,0-0.1-0.1-0.1c0,0-0.1,0-0.2,0c0,0-0.1,0-0.2,0.1l-0.1-0.1l1-0.3H46.7z"></path> </g> </g> </g> </g> </svg> 